<?xml version="1.0" standalone="no"?>
<!DOCTYPE svg PUBLIC "-//W3C//DTD SVG 1.1//EN" "http://www.w3.org/Graphics/SVG/1.1/DTD/svg11.dtd" >
<svg xmlns="http://www.w3.org/2000/svg" xmlns:xlink="http://www.w3.org/1999/xlink" version="1.1">
<metadata>
Created by FontForge 20190801 at Fri Feb  3 11:47:05 2023
 By Unknown
Copyright (c) 2023 by Khurasan. All rights reserved.
</metadata>
<defs>
<font id="AprilJune" horiz-adv-x="0" >
  <font-face 
    font-family="April June"
    font-weight="400"
    font-stretch="normal"
    units-per-em="1000"
    panose-1="0 0 0 0 0 0 0 0 0 0"
    ascent="800"
    descent="-200"
    x-height="374"
    cap-height="778"
    bbox="-449.333 -137 1070 891.6"
    underline-thickness="50"
    underline-position="-100"
    unicode-range="U+000D-FB06"
  />
<missing-glyph horiz-adv-x="292" 
 />
    <glyph glyph-name="a.001" unicode="a&#x31;" horiz-adv-x="886" 
d="M179 296q-6 -11 -13.5 -27.5t-10.5 -33t2.5 -30t27.5 -17.5q36 -8 85.5 -8.5t105.5 2t115.5 7.5t115.5 9t106 5.5t87 -2.5q14 -3 10.5 -14.5t-13.5 -11.5q-41 1 -95 -0.5t-113.5 -4.5t-120 -6t-115 -4.5t-99.5 -1t-72 5.5q-22 4 -34 17.5t-15 32t1 40t14 43.5
q-9 -9 -28 -26.5t-41 -35.5t-44.5 -31t-38.5 -13q-14 0 -21.5 11.5t-7.5 24.5q0 24 13.5 49t34.5 45.5t46.5 33t49.5 12.5q15 0 29.5 -5.5t25.5 -16.5q5 6 16 17.5t19 11.5q4 0 7 -3.5t3 -6.5q0 -8 -10 -26.5t-22 -41.5zM112 344q-18 0 -39.5 -11t-39.5 -28.5t-30.5 -37.5
t-12.5 -38q0 -5 1.5 -9.5t6.5 -4.5q13 0 34 14.5t43.5 33.5t42.5 38t30 28q-15 15 -36 15z" />
    <glyph glyph-name="b.001" unicode="b&#x31;" horiz-adv-x="781" 
d="M158 277q64 -5 141 -3t154 4.5t146.5 3.5t117.5 -5q7 -2 9 -6.5t0.5 -9t-5.5 -7.5t-9 -3q-37 3 -85 4t-101.5 1t-109 -1.5t-107.5 -2t-97.5 0t-79.5 2.5q-9 -6 -22 -14t-27 -15t-28 -12t-25 -5q-12 0 -26 5t-20 16q-16 -21 -28.5 -43.5t-26.5 -44.5l-10 -5q-5 0 -8.5 3.5
t-4.5 8.5q0 1 13 23.5t34 58.5t48 81.5t55.5 93.5t56.5 95t51 84.5t38.5 63t18.5 31.5q11 4 15 -2t5 -11q0 -1 -8.5 -15.5t-22.5 -38.5t-32 -54t-37 -62t-37.5 -63t-34 -56.5t-25.5 -42.5t-13 -21q9 9 25 21t34 23.5t36 19.5t30 8q16 0 29 -9.5t14 -26.5q0 -9 -4 -19.5
t-10 -20t-13.5 -18.5t-13.5 -15zM158 363q-10 0 -26 -8t-32.5 -19t-31.5 -22.5t-23 -18.5q19 -8 39 -10t40 -7q6 4 15 13.5t17.5 20t14 21t5.5 18.5q-1 6 -7 9t-11 3zM27 232q17 0 36 9.5t33 17.5q-19 4 -37 9t-37 5q-6 -5 -12 -11.5t-11 -13.5q10 -16 28 -16z" />
    <glyph glyph-name="c.001" unicode="c&#x31;" horiz-adv-x="711" 
d="M-3 236q0 -14 14 -20t32 -8t35.5 -1.5t25.5 0.5q58 0 131 7t146.5 13.5t141 10.5t115.5 -1q14 -3 10.5 -14.5t-13.5 -11.5q-55 1 -131 -2t-156 -7.5t-155 -9t-127 -4.5q-13 0 -29 0.5t-30.5 5t-24 15t-9.5 29.5t13.5 43t33.5 45t43 35t43 14q18 0 34.5 -11.5t16.5 -31.5
q0 -10 -4 -16.5t-15 -6.5h-1q-6 4 -6 9q0 14 -2 23.5t-22 9.5q-16 0 -35 -12t-35.5 -30t-28 -38t-11.5 -35z" />
    <glyph glyph-name="d.001" unicode="d&#x31;" horiz-adv-x="600" 
d="M289 104q-52 -34 -102 -53.5t-84 -14t-43.5 40t19.5 107.5q15 33 31.5 65.5t25.5 54.5l-27.5 -35t-36 -40.5t-40.5 -33t-40 -13.5q-10 0 -15.5 8.5t-5.5 17.5q0 22 10 52t27 57.5t39.5 47t47.5 19.5q19 0 30 -10t24 -21l192 335q3 5 7 5.5t7.5 -1.5t5.5 -5.5t2 -5.5
t-2 -6q-23 -35 -51.5 -82t-56 -97.5t-51.5 -100.5t-39 -91q2 -8 0.5 -16.5t-13.5 -8.5q-11 -16 -24.5 -43t-25.5 -56q-27 -64 -20 -93t36 -32t73 16t90 51q48 33 95 74t82 82t52.5 79t5.5 64q-9 20 -24 27.5t-31.5 10.5t-34 4.5t-31.5 9.5q-4 5 0 9.5t10 6.5q17 5 37 1
t38.5 -13t33 -21.5t20.5 -24.5q16 -32 -0.5 -74t-53.5 -86.5t-87 -88t-102 -78.5zM3 250q-3 -11 -4.5 -20t1 -13.5t9.5 -3.5t19 10q15 11 30.5 25.5t29.5 30t25 30.5t17 27q-5 11 -15 17.5t-22 6.5q-16 0 -29.5 -10.5t-25 -27t-20.5 -35.5t-15 -37z" />
    <glyph glyph-name="e.001" unicode="e&#x31;" horiz-adv-x="704" 
d="M2 247q0 -16 12 -23.5t28.5 -10.5t33.5 -2t28 1q61 4 134 10.5t145 12t137 6.5t110 -6q14 -3 10.5 -14.5t-13.5 -11.5q-49 1 -116 0.5t-139 -2.5t-142.5 -5.5t-126.5 -7.5q-14 -1 -35.5 -2t-41.5 3t-34 16t-14 38q0 17 11 38.5t27.5 40t36.5 31t37 12.5q16 0 28.5 -10.5
t12.5 -27.5q0 -25 -20.5 -38t-42.5 -13q-11 0 -24 4.5t-21 12.5q-8 -11 -14.5 -24.5t-6.5 -27.5zM91 348q-13 0 -29 -12t-24 -22h2q11 -7 27 -7q12 0 26 5.5t14 20.5q0 6 -5 10.5t-11 4.5z" />
    <glyph glyph-name="f.001" unicode="f&#x31;" horiz-adv-x="621" 
d="M-5 258q65 -5 142.5 -1t153.5 8t143 4t112 -13q7 -2 8.5 -6.5t0 -9t-5.5 -7.5t-9 -3q-52 7 -124.5 7.5t-150 -1.5t-150.5 -4t-127 2h-5q-25 -44 -45 -80t-38 -71.5t-36.5 -72.5t-39.5 -82q-8 -8 -13.5 -3.5t-5.5 7.5q2 17 8.5 40.5t21.5 47.5q19 30 31.5 53t20 42.5
t11.5 38.5t7 42t-7 41q-2 6 -2 9q2 12 13 12q15 0 30.5 -0.5t30.5 0.5q7 13 22.5 39t36 57t44.5 63t47.5 58.5t44.5 43.5t36 17q5 0 12.5 -3t5.5 -10q-1 -9 -16 -32t-37.5 -52t-49 -61t-51 -58t-43.5 -43t-26 -17zM186 506q-48 -43 -85.5 -91.5t-74.5 -101.5q45 44 85.5 92
t74.5 101zM-74 174q6 15 13.5 29.5t15.5 29.5h-14.5t-14.5 1q5 -11 5 -23t-2 -25z" />
    <glyph glyph-name="g.001" unicode="g&#x31;" horiz-adv-x="635" 
d="M124 146q37 6 95.5 17.5t121.5 21t121.5 14t95.5 -1.5q7 -2 9.5 -6t1 -8.5t-5 -8t-8.5 -3.5q-40 2 -89.5 -1t-106.5 -9.5t-121 -17t-131 -23.5q-11 -23 -27 -59.5t-35 -71t-40.5 -59.5t-44.5 -25q-12 0 -34 11.5t-45.5 29t-44.5 37t-32 34.5q-6 10 -7.5 19t9.5 18
q14 11 45 22t71.5 22t86.5 22.5t88 22.5q3 3 12.5 25.5t21 49.5t21.5 52t13 32l-31 -31t-40 -37t-43 -30.5t-41 -12.5q-17 0 -25 9.5t-8 26.5q0 23 10.5 50.5t28 51t41 39.5t49.5 16q21 0 40.5 -9t30.5 -28q2 3 6.5 9t9 11.5t9.5 10t9 4.5q5 0 7.5 -4.5t2.5 -8.5l-6.5 -15
t-16.5 -37t-22 -49t-23 -52t-19 -44t-10 -26zM-180 40q0 -8 17.5 -26.5t41 -37t46 -33t32.5 -14.5q16 0 35 23.5t36 54.5t31 62.5t21 47.5q-57 -11 -120 -27.5t-125 -39.5q-15 -5 -15 -10zM6 265q-5 -14 -6 -25t3 -17.5t12.5 -7t22.5 8.5q15 10 33 24.5t35.5 29.5t31.5 28.5
t22 22.5q-6 16 -20.5 24t-30.5 8t-31.5 -8.5t-29 -22t-24.5 -31t-18 -34.5z" />
    <glyph glyph-name="h.001" unicode="h&#x31;" horiz-adv-x="952" 
d="M220 317q3 -15 4 -25.5t5.5 -17.5t15 -11t31.5 -6q39 -3 88.5 -2t103.5 3.5t110 5.5t108.5 4.5t98.5 0t80 -7.5q14 -3 10.5 -14.5t-13.5 -11.5q-38 1 -87 1t-103 -0.5t-110 -1.5t-108.5 -1.5t-98 -0.5t-78.5 1q-25 0 -38.5 4.5t-21 14t-11 24t-8.5 34.5q-3 19 -23 19
q-15 0 -38.5 -17t-51 -43t-55.5 -55.5t-50.5 -55.5t-37.5 -43t-16 -17q-4 0 -9.5 2t-5.5 7q0 16 15 51.5t39.5 82.5t56.5 101.5t65.5 108.5t66.5 104.5t60 89.5t45.5 62t23.5 23q8 0 10.5 -6.5t-2.5 -11.5q-91 -128 -177.5 -262t-151.5 -277q12 15 40 45t60 60t63.5 52.5
t49.5 22.5q24 0 33 -10.5t12 -25.5z" />
    <glyph glyph-name="i.001" unicode="i&#x31;" horiz-adv-x="716" 
d="M88 387q-9 -12 -21 -27.5t-24 -33t-23.5 -35.5t-18.5 -35q-4 -10 -6.5 -20.5t-1 -20.5t8.5 -17t22 -10q37 -7 87 -6.5t106.5 4t115.5 8.5t115 9t105.5 4t85.5 -6q14 -3 10.5 -14.5t-13.5 -11.5q-41 1 -95 -0.5t-113.5 -4.5t-120 -6t-115 -4.5t-99.5 -1t-72 5.5
q-25 5 -36.5 18t-14 30t3.5 37t15 38q17 33 40 64.5t42 51.5q3 4 7.5 3t7.5 -4t4 -7.5t-2 -7.5zM105 418q-8 0 -11 6q-2 6 2 10q3 4 5.5 7.5t6.5 10.5q1 6 8 6q5 0 8 -3.5t4 -8.5q0 1 -1 -3t-3.5 -9.5t-7 -10.5t-11.5 -5z" />
    <glyph glyph-name="j.001" unicode="j&#x31;" horiz-adv-x="569" 
d="M-39 85q33 2 77.5 6t94.5 8.5t102 8t100.5 5t90 -0.5t70.5 -8q7 -2 9 -7t0.5 -9.5t-5.5 -7.5t-9 -2q-48 7 -113 7.5t-137.5 -3.5t-147.5 -9.5t-143 -10.5q-11 -24 -27 -58t-38 -64.5t-48.5 -52t-57.5 -21.5q-29 0 -52 15.5t-39 38t-24.5 49t-8.5 48.5q0 7 4 8.5t9 3.5
q63 21 134 33.5t134 20.5q25 50 41.5 94t37.5 96q-19 -5 -23 8t7 23q10 9 21 23.5t20 28.5t16 24.5t10 10.5q6 0 12.5 -5t6.5 -10zM-220 -109q25 0 47 19t40.5 46t33 55.5t24.5 47.5q-25 -1 -55 -6t-62.5 -11.5t-65.5 -15t-63 -16.5q1 -16 10 -36.5t23 -39t31.5 -31
t36.5 -12.5zM101 419q-9 0 -13 7q-1 3 -1 6t4 7l13 22q2 8 9 8q6 0 9.5 -5t4.5 -10l-1.5 -5.5t-4.5 -12t-8 -12t-12 -5.5z" />
    <glyph glyph-name="k.001" unicode="k&#x31;" horiz-adv-x="774" 
d="M151 195q-26 0 -46 3.5t-36.5 12.5t-30.5 25t-28 42q-33 -57 -61 -113q-3 -6 -6.5 -13.5t-14.5 -2.5q-8 2 -8 7q0 10 19.5 46.5t49 86.5t65 106.5t68 106.5t57.5 87t34 47q4 6 11 6q11 0 11 -11q0 -2 -2 -6q-12 -26 -33.5 -52t-37.5 -50q-34 -51 -67 -102.5t-65 -105.5
q24 11 43 23.5t37 26.5t35.5 29t37.5 30q4 4 6 4q13 0 13 -13q0 -8 -11 -19t-28 -24t-37 -26t-39.5 -24.5t-35 -20t-22.5 -11.5q20 -33 45 -53.5t67 -20.5q60 -2 138.5 3.5t158.5 10.5t153 6.5t123 -7.5q14 -3 10.5 -14.5t-13.5 -11.5q-54 2 -128 1.5t-152.5 -2t-152.5 -4
t-127 -3.5z" />
    <glyph glyph-name="l.001" unicode="l&#x31;" horiz-adv-x="481" 
d="M-39 213q13 37 37 88.5t54 106t62 108t59 96t46 68.5t23 26q5 0 9.5 -1.5t4.5 -7.5q-62 -99 -116 -190q-23 -39 -46.5 -80t-44.5 -80t-38.5 -73.5t-27.5 -60.5q-22 -57 -12.5 -82.5t38.5 -27t71.5 17t87.5 49.5q48 33 95 74t82 82t52.5 79t5.5 64q-9 20 -24 27.5
t-31.5 10.5t-34 4.5t-31.5 9.5q-4 5 0 9.5t10 6.5q17 5 37 1t38.5 -13t33 -21.5t20.5 -24.5q16 -32 -0.5 -74t-53.5 -86.5t-87 -88t-102 -78.5q-50 -33 -98.5 -52t-82.5 -16t-46.5 33t10.5 96z" />
    <glyph glyph-name="m.001" unicode="m&#x31;" horiz-adv-x="1042" 
d="M329 323q0 -14 -6 -34t-8.5 -40t3 -35.5t27.5 -19.5q37 -7 87 -3t106.5 12.5t115.5 20t115 20.5t105.5 12.5t85.5 -2.5q14 -3 10.5 -14.5t-13.5 -11.5q-41 1 -95 -4t-113.5 -13t-120 -17t-115 -16t-99.5 -10t-72 2q-32 6 -42 23.5t-9.5 39.5t7.5 46t9 45q0 5 -1.5 10
t-6.5 5q-4 0 -16 -10.5t-28.5 -26.5t-35.5 -34.5t-36.5 -34.5t-32 -26.5t-21.5 -10.5q-8 0 -13 6t-5 14q0 1 7.5 23t17 49.5t18 52.5t10.5 32q-13 -9 -32.5 -27.5t-42.5 -41.5t-47 -48t-44.5 -46t-36 -35t-21.5 -16q-4 0 -7.5 2.5t-3.5 7.5q0 7 11 29.5t28.5 52t38 62.5
t39 60t33.5 45t20 18t7 -5t2 -9q0 -2 -1 -3q-31 -47 -62.5 -91t-57.5 -95q11 10 36 36.5t52 54.5t51.5 49.5t35.5 21.5t18.5 -7.5t7.5 -18.5q0 -5 -7 -25t-15.5 -44t-17 -46t-11.5 -30q4 6 21 22.5t38 36.5t43.5 39t38.5 31q8 6 13 7t8 1q17 0 23.5 -12t6.5 -26z" />
    <glyph glyph-name="n.001" unicode="n&#x31;" horiz-adv-x="907" 
d="M153 243q3 20 11.5 37t14.5 36q6 17 0 29t-28 1q-24 -11 -54 -36.5t-58.5 -51.5t-50.5 -46t-29 -20q-5 0 -8.5 4.5t-3.5 9.5q0 7 14.5 33.5t33.5 58.5t38 62t27 42q2 2 6 3.5t7.5 1t6 -3.5t2.5 -10q0 -2 -1 -4q-19 -37 -43 -71t-44 -72q15 13 37.5 35.5t47.5 43.5
t50 36.5t46 15.5q14 0 22.5 -9t8.5 -23t-4 -27t-9 -26t-10 -26.5t-7 -28.5q-4 -20 3.5 -32.5t27.5 -16.5q37 -7 87 -3t106.5 12.5t115.5 20t115 20.5t105.5 12.5t85.5 -2.5q14 -3 10.5 -14.5t-13.5 -11.5q-41 1 -95 -4t-113 -13t-120 -17t-115.5 -16t-99.5 -10t-72 2
q-31 6 -43.5 27.5t-7.5 51.5z" />
    <glyph glyph-name="o.001" unicode="o&#x31;" horiz-adv-x="745" 
d="M150 284q64 0 128.5 6t129.5 11.5t131 7t134 -6.5q14 -3 10.5 -14.5t-13.5 -11.5q-135 3 -265.5 -3.5t-265.5 -14.5q-6 -11 -15.5 -24.5t-21.5 -25.5t-25 -20t-27 -8q-15 0 -23.5 11t-8.5 25q0 11 4.5 23t7.5 23q-14 5 -24 15t-10 25q0 17 9 30.5t23 22.5t30.5 14t31.5 5
q29 0 47 -17t18 -46q0 -16 -5 -27zM19 305q0 -10 7 -14.5t15 -6.5q1 3 5.5 11t9.5 15.5t10 13.5t9 6q1 0 4.5 -1t6 -3t3.5 -5.5t-2 -8.5q-7 -7 -12.5 -15t-10.5 -16h61q6 16 6 34q0 19 -12 27t-29 8q-9 0 -21.5 -2.5t-23.5 -8t-18.5 -14t-7.5 -20.5zM49 205q9 0 18 5.5
t17.5 13t15 16.5t11.5 16l-57 1q-4 -10 -8 -20.5t-4 -21.5q0 -3 1.5 -6.5t5.5 -3.5z" />
    <glyph glyph-name="p.001" unicode="p&#x31;" horiz-adv-x="745" 
d="M34 221q-5 8 -1 11t12 7q11 7 28 17.5t32 23.5t25 27t9 28q-1 13 -14 13q-14 0 -35.5 -22.5t-45.5 -58t-49 -78t-46 -82.5t-36 -72.5t-20 -46.5q-2 -8 -10 -8.5t-12 7.5q-1 2 -1 4t2 8l181 444q6 9 14 4.5t9 -9.5q0 -4 -6 -21t-15 -41t-20 -51t-20.5 -51t-17 -41
t-8.5 -20q45 85 81 121.5t56 36.5q14 0 24 -9t12 -23q1 -13 -5.5 -28t-18 -30t-26.5 -28t-30 -22q39 -6 88.5 -6.5t103.5 2t110.5 7t109 8t99 5t80.5 -2.5q14 -3 10.5 -14.5t-13.5 -11.5q-41 1 -95 0t-113.5 -3.5t-120 -5t-115 -3.5t-99.5 0t-72 6l-10 2.5t-10 5.5l-1 1v0z
" />
    <glyph glyph-name="q.001" unicode="q&#x31;" horiz-adv-x="563" 
d="M227 404q0 -2 -18 -25t-43.5 -59.5t-55 -82t-51.5 -91.5q-30 -60 -33 -100.5t18.5 -55t66.5 -1t113 61.5q47 33 94 74t82.5 82.5t53 79t5.5 63.5q-9 20 -24 27.5t-31.5 10.5t-34 4.5t-31.5 9.5q-4 5 0 9.5t10 6.5q17 5 37 1t38.5 -13t33 -21.5t20.5 -24.5
q16 -32 -0.5 -74t-53.5 -86.5t-87 -88t-102 -78.5q-48 -32 -95 -50.5t-81 -17.5t-50 26.5t-1 82.5q21 71 61.5 135.5t84.5 127.5q-14 -11 -32 -27t-37.5 -30t-39.5 -24t-38 -10q-10 0 -14.5 8t-4.5 17q0 16 17 37.5t40.5 40.5t48.5 32t41 13q20 0 34 -14l10 10t13 12
t13.5 10t11.5 4t8 -4t3 -8zM10 267q14 2 33 14t39 27.5t38.5 31t30.5 24.5q-11 7 -21 7q-11 0 -31 -12t-39.5 -28.5t-34.5 -34t-15 -27.5v-2z" />
    <glyph glyph-name="r.001" unicode="r&#x31;" horiz-adv-x="889" 
d="M154 327q0 -17 5 -25.5t25 -13.5q36 -8 84.5 -9.5t103.5 1t114 7.5t115.5 9t107 6.5t90.5 0.5q14 -3 10.5 -14.5t-13.5 -11.5q-41 1 -95 -0.5t-113.5 -4.5t-120 -6.5t-115 -5.5t-99.5 -1.5t-72 5.5q-8 1 -17 4.5t-16.5 10t-12.5 17.5t-5 26q-1 13 -8 18.5t-27 -13.5
q-20 -18 -48.5 -49.5t-54.5 -61.5t-44.5 -52t-19.5 -22q-5 0 -9 3t-4 9q0 3 2 6q31 52 61 104t57 107l9 6q13 0 13 -13q0 -2 -6 -14.5t-13.5 -27.5t-15 -28.5t-9.5 -17.5q7 8 21 23.5t30 30.5t31.5 26.5t26.5 11.5q17 0 24.5 -13.5t7.5 -27.5z" />
    <glyph glyph-name="s.001" unicode="s&#x31;" horiz-adv-x="694" 
d="M62 235q4 -7 7 -14t5 -15q58 22 129.5 37t146 21.5t146 5.5t129.5 -10q7 -2 9.5 -6.5t1 -9t-5 -8t-8.5 -2.5q-48 7 -114.5 9.5t-140.5 -2t-149.5 -17t-140.5 -36.5q0 -10 -1 -14q-5 -32 -27.5 -53t-56.5 -21q-11 0 -20.5 3t-9.5 17q2 5 5 8.5t6 7.5q11 14 29 30t50 33
q-3 15 -12 26.5t-18.5 22.5t-17 23.5t-7.5 29.5q0 28 19.5 50.5t48 38.5t60 24t55.5 8q10 0 21 -1.5t20.5 -5.5t15.5 -11.5t6 -20.5q0 -4 -4 -8t-8 -4q-9 0 -9.5 4.5t-2 9.5t-8.5 9.5t-29 4.5q-18 0 -45.5 -6.5t-53.5 -18.5t-44.5 -30t-18.5 -41q0 -21 15 -36t27 -32z
M-7 124q22 1 37.5 16t20.5 36q-13 -6 -29 -20t-29 -32z" />
    <glyph glyph-name="t.001" unicode="t&#x31;" horiz-adv-x="514" 
d="M12 280q-28 -65 -21 -94t35.5 -32t72.5 15.5t90 50.5q48 33 95 74t82 82t52.5 79t5.5 64q-9 20 -24 27.5t-31.5 10.5t-34 4.5t-31.5 9.5q-4 5 0 9.5t10 6.5q17 5 37 1t38.5 -13t33 -21.5t20.5 -24.5q16 -32 -0.5 -74t-53.5 -86.5t-87 -88t-102 -78.5q-52 -34 -102 -53.5
t-84 -14t-44 39.5t18 106q13 33 32.5 72t40.5 76.5t41 71t35 56.5q-1 14 -11 23.5t-24.5 15.5t-29.5 9t-26 3q-52 0 -104.5 -8.5t-104.5 -8.5q-4 0 -8 3t-4 7q0 9 22.5 15t51 10t55 5.5t34.5 1.5q51 0 101 2t101 4q25 40 51.5 78.5t52.5 76.5l9 5q4 0 9 -2.5t5 -7.5
q0 -1 -6.5 -11t-17 -25.5t-22.5 -34t-23 -35t-19.5 -28.5t-10.5 -16q7 0 25 1t41 1.5t48.5 1t47 1t37.5 0t20 -1.5t8 -4t4 -8q0 -12 -12 -12h-117t-117 -2v-1q-22 -33 -48 -74t-52 -84.5t-50 -88.5t-40 -87zM153 579q5 9 10 17.5t10 17.5q-13 0 -25 -2t-25 -2
q12 -5 17.5 -12.5t12.5 -18.5z" />
    <glyph glyph-name="u.001" unicode="u&#x31;" horiz-adv-x="978" 
d="M245 380q-5 -23 -11.5 -44t-6 -37.5t12.5 -27.5t46 -14q39 -5 88.5 -5t103.5 2.5t109.5 6.5t108 7t98.5 4.5t80 -1.5q14 -3 10.5 -14.5t-13.5 -11.5q-39 1 -89.5 0t-106 -3.5t-112.5 -5t-110 -4t-98.5 -1.5t-77.5 3q-15 2 -28.5 6t-24 12t-16.5 20.5t-6 30.5q0 8 2.5 19
t4.5 19q-13 -15 -37.5 -43t-53 -55t-56.5 -47.5t-48 -20.5q-17 0 -29 9.5t-12 27.5q0 11 9.5 42.5t23.5 64.5t28.5 58.5t25.5 25.5q3 0 8.5 -3t2.5 -13q-11 -16 -23.5 -38t-24 -46t-19 -48t-7.5 -43q0 -7 4.5 -10t10.5 -3q18 0 47.5 24t59.5 56t57 63.5t41 46.5q3 3 8.5 5
t10.5 1.5t8 -4t1 -11.5z" />
    <glyph glyph-name="v.001" unicode="v&#x31;" horiz-adv-x="918" 
d="M169 328q2 14 8.5 26.5t8.5 26.5q-5 -9 -17.5 -29.5t-30 -46t-37.5 -53t-40 -50t-38 -37t-31 -14.5q-12 0 -18 9.5t-6 20.5q0 21 5 44.5t12.5 47t17.5 45.5t21 40q10 8 16.5 0.5t6.5 -12.5q0 -2 -0.5 -2t-1.5 -2q-20 -41 -37 -80.5t-17 -86.5v-2q37 28 71.5 69.5t64 84.5
t53 81.5t39.5 60.5q5 5 13 0t8 -12q0 -11 -7 -28t-15.5 -36t-16 -38t-9.5 -33q-4 -20 3.5 -32.5t27.5 -16.5q37 -7 87 -5.5t106.5 6.5t115.5 12t115 12t105.5 6t85.5 -5q14 -3 10.5 -14.5t-13.5 -11.5q-41 1 -95 -1.5t-113 -6.5t-120 -9t-115.5 -8t-99.5 -3.5t-72 4.5
q-31 6 -43.5 27.5t-7.5 51.5z" />
    <glyph glyph-name="w.001" unicode="w&#x31;" horiz-adv-x="1036" 
d="M388 265q-17 1 -33 2.5t-29.5 7t-25 15.5t-20.5 27q-10 -19 -28 -52t-40.5 -65.5t-47.5 -56t-49 -23.5q-17 0 -25.5 13t-8.5 28q0 13 4.5 29.5t10.5 34t12.5 34.5t11.5 29q-8 -7 -20.5 -16.5t-27 -18.5t-28.5 -15t-25 -6q-16 0 -23 10q-5 7 -5 20q0 14 7 37t17 45t21 38
t19 16q2 0 4 -0.5t5 -3.5t4 -5t-2 -7q-5 -8 -14 -23t-18 -32t-15.5 -34t-6.5 -28q0 -10 8 -10q14 0 34.5 13.5t40 29.5t36 29.5t22.5 13.5q3 0 7.5 -2t4.5 -7q0 -3 -9.5 -24t-21 -48t-21 -55t-9.5 -44q0 -5 2 -10.5t8 -5.5q14 0 30 13.5t32.5 35t33 48t30.5 52.5t25 48.5
t17 35.5q3 6 12 6t9 -13q0 -6 -2.5 -12t-2.5 -14q0 -18 8 -29t21 -16.5t29 -8t32 -4.5q60 -5 137.5 -1.5t156 9t150.5 9.5t121 -1q14 -3 10.5 -14.5t-13.5 -11.5q-54 1 -128.5 -1.5t-153 -5.5t-153 -5.5t-127.5 0.5z" />
    <glyph glyph-name="x.001" unicode="x&#x31;" horiz-adv-x="844" 
d="M183 154q-23 0 -45 0.5t-40.5 6.5t-31 21t-15.5 44q-6 -6 -26.5 -30.5t-44.5 -53t-46 -54.5t-31 -36q-3 -3 -7 -2t-7 4t-4.5 6.5t0.5 5.5q38 48 80.5 96.5t82.5 96.5q0 31 5.5 64t16.5 62q-11 -11 -17.5 -21.5t-11.5 -21t-9.5 -22t-11.5 -24.5l-5 -5t-6 -3
q-8 0 -10.5 4.5t-2.5 10.5q0 10 10 29.5t23.5 39t28.5 34t25 14.5q2 0 4.5 -3.5t5.5 -7.5t5 -8t2 -5q-23 -53 -26 -112q9 10 30 30.5t48 46.5t57 53t57 49t49 36.5t32 14.5q5 0 10.5 -2t9.5 -16q0 -7 -6 -8t-10 4q-6 2 -27 -13t-50 -40t-61.5 -55t-61.5 -58t-51 -49t-28 -28
q-2 -28 8 -43t26.5 -21.5t37.5 -7t41 -0.5q61 0 135 5.5t148 11.5t141 9t114 -1q14 -3 10.5 -14.5t-13.5 -11.5q-51 1 -120.5 -2t-144 -7.5t-146 -8.5t-126.5 -4z" />
    <glyph glyph-name="y.001" unicode="y&#x31;" horiz-adv-x="563" 
d="M120 197q42 7 90.5 16t97.5 16.5t95 11.5t83 1q7 -2 9.5 -6t1 -8.5t-5 -8t-8.5 -3.5q-69 4 -167.5 -7t-205.5 -34q-21 -37 -44.5 -77t-53.5 -73.5t-68 -55t-87 -21.5q-16 0 -38.5 4.5t-43.5 13.5t-35.5 23.5t-14.5 34.5q0 19 20 37t52 34.5t72.5 31.5t81.5 27.5t78 22
t63 15.5q15 29 31.5 62t30.5 62q-10 -10 -28 -25.5t-39 -30.5t-41.5 -25.5t-33.5 -10.5q-12 0 -20 7.5t-8 19.5t6.5 30t15.5 37.5t19 38t17 30.5q2 4 7 7.5t10 1.5q8 -4 8 -8q0 -6 -9.5 -23t-20.5 -37.5t-20.5 -41t-9.5 -32.5q0 -1 0.5 -4t3.5 -3q12 0 29 10t36.5 24.5
t38.5 32t35.5 32t28 24.5t15.5 10q5 0 8 -4t3 -8q0 -2 -12 -26.5t-27.5 -54.5t-29 -57zM-149 -29q42 0 77 18.5t63.5 47.5t50.5 64.5t39 69.5q-13 -4 -42.5 -12.5t-66.5 -20t-77 -26t-72.5 -30t-53.5 -30.5t-21 -29q0 -12 12.5 -21.5t29.5 -16t34.5 -10.5t26.5 -4z" />
    <glyph glyph-name="z.001" unicode="z&#x31;" horiz-adv-x="803" 
d="M67 203q73 1 162 4t179.5 5.5t176 2.5t151.5 -6q7 -2 9 -6.5t0.5 -9t-5.5 -7.5t-9 -3q-63 6 -142.5 6.5t-164 -1.5t-168.5 -4.5t-155 -2.5q-30 0 -53 -9t-39 -19.5t-25.5 -19t-12.5 -8.5q-4 0 -8.5 3t-4.5 8q0 6 6.5 14t15 16t18 13.5t15.5 7.5q20 17 39.5 35.5
t39.5 35.5q-5 0 -15 -1t-20 -1t-18 2.5t-8 9.5q0 6 11 9t25.5 4.5t29 2t20.5 2.5q14 14 34.5 35.5t39.5 45t33 48t17 44.5q-2 4 -8.5 2.5t-9.5 -2.5q-18 -6 -42.5 -25t-48 -42.5t-42 -46t-25.5 -34.5l-10 -5q-12 0 -12 12q0 8 11.5 24t29 34.5t40 38t44 35t40.5 25.5t30 10
q13 0 19 -9.5t6 -20.5q0 -19 -12.5 -42t-30 -46t-36 -44t-31.5 -35q7 2 12.5 -0.5t5.5 -10.5q0 -3 -2.5 -6.5t-4.5 -5.5l-35 -3q-14 -16 -30 -30t-32 -29z" />
    <glyph glyph-name="e_e" unicode="ee" horiz-adv-x="398" 
d="M218 299q-8 -11 -14.5 -24.5t-6.5 -27.5q0 -17 16 -24.5t30 -7.5q24 0 50.5 13.5t49 30t38.5 30t19 13.5q11 0 11 -13t-22 -30t-51.5 -32t-58 -25.5t-41.5 -10.5q-24 0 -44.5 16t-20.5 42v2q-16 -15 -34 -27t-35 -21t-31.5 -13.5t-24.5 -4.5q-13 0 -24.5 5.5t-20 16
t-13 25.5t-2.5 33q2 16 9 35t18 37.5t24.5 36t28.5 31.5q14 14 31 21t29 7q8 0 18 -4t18.5 -10.5t13.5 -16t4 -21.5q-2 -17 -12.5 -30t-25 -22t-30 -13.5t-26.5 -4.5q-12 0 -25.5 6t-20.5 17q-11 -15 -20.5 -35t-10.5 -40q-2 -23 13 -35t29 -12q15 0 32.5 7.5t35 19.5
t34.5 26.5t32 28.5q8 14 20 28t25 25t27 17.5t26 6.5q16 0 28.5 -10.5t12.5 -27.5q0 -25 -20.5 -38t-42.5 -13q-11 0 -24 4.5t-21 12.5zM129 409q-10 -1 -20.5 -7.5t-20 -16t-17.5 -19t-12 -16.5q18 -16 43 -13q9 1 19.5 6.5t18.5 14t11 18.5t-3 22q-6 11 -19 11zM286 348
q-13 0 -29 -12t-24 -22h2q11 -7 27 -7q12 0 26 5.5t14 20.5q0 6 -5 10.5t-11 4.5z" />
    <glyph glyph-name="f_f" unicode="ff" horiz-adv-x="391" 
d="M-3 258q42 -1 83.5 14.5t75.5 37.5q20 32 47 71t55 73.5t54.5 58t44.5 23.5q5 0 12.5 -3t5.5 -10q-5 -15 -26.5 -45.5t-50.5 -65t-61 -65.5t-58 -47l-28 -42q33 0 56.5 3t44.5 8.5t42 13t50 16.5q1 0 0.5 0t5.5 1q3 1 4 -4t1 -7q-1 -8 -15 -15t-35 -13t-46.5 -11
t-49 -8.5t-42.5 -5.5t-28 -2q-25 -44 -45 -80t-38 -71.5t-36.5 -72.5t-39.5 -82q-8 -8 -13.5 -3.5t-5.5 7.5q2 17 8.5 40.5t21.5 47.5q19 30 31.5 53t20 42.5t11.5 38.5t7 42t-7 41q-2 4 -2 8q-41 -11 -67 -11q-25 -44 -45 -80t-38 -71.5t-36.5 -72.5t-39.5 -82
q-8 -8 -13.5 -3.5t-5.5 7.5q2 17 8.5 40.5t21.5 47.5q19 30 31.5 53t20 42.5t11.5 38.5t7 42t-7 41q-2 6 -2 9q2 12 13 12q15 0 30.5 -0.5t30.5 0.5q7 13 24.5 43t41.5 66.5t51.5 76t53.5 71.5t49.5 53t38.5 21q5 0 12.5 -3t5.5 -10q-1 -9 -18 -36t-42.5 -62t-56 -73.5
t-58 -70.5t-48.5 -53t-28 -21zM216 559q-24 -21 -49.5 -52.5t-50 -65.5t-47.5 -68t-41 -60q22 22 48 53t51.5 65.5t48.5 68t40 59.5zM342 506q-17 -9 -35.5 -27t-37.5 -41t-38 -49t-37 -52q1 0 2 1q28 30 40.5 41.5t20.5 19.5q23 24 44 49.5t41 57.5zM-72 174
q6 15 13.5 29.5t15.5 29.5h-14.5t-14.5 1q5 -11 5 -23t-2 -25zM82 174q6 15 13.5 29.5t15.5 29.5h-14.5t-14.5 1q5 -11 5 -23t-2 -25zM126 258q2 4 4.5 8.5t6.5 10.5l-24 -10l-24 -10h19t18 1z" />
    <glyph glyph-name="l_l" unicode="ll" horiz-adv-x="302" 
d="M181 2q7 -2 9 -5.5t0.5 -7t-4.5 -6t-6 -2.5q-23 0 -36.5 21.5t-18 55.5t-0.5 75t18 80q11 35 33 81t49 97q-36 -48 -75 -96.5t-72 -85.5q-29 -33 -50 -50.5t-29 -17.5q-20 0 -31 12.5t-11 31.5q0 20 17.5 62t44.5 93t59 105t61 98.5t50 73t27 28.5q5 0 9.5 -1.5t4.5 -7.5
q0 -1 -12.5 -19t-32 -47t-44.5 -67.5t-50 -80t-48.5 -84.5t-39.5 -81q-14 -31 -18.5 -52.5t2.5 -28t25 4t49 43.5q22 23 47.5 54t52 65t52 68.5t48.5 65.5q9 13 24 35t32 47.5t34.5 51.5t32.5 47t25.5 34.5t14.5 13.5q5 0 9.5 -1.5t4.5 -7.5q-62 -99 -116 -190
q-23 -39 -46.5 -80t-44.5 -80t-38.5 -73.5t-27.5 -60.5q-12 -32 -17.5 -68t-4 -67t11 -52t26.5 -24z" />
    <glyph glyph-name="o_o" unicode="oo" horiz-adv-x="358" 
d="M282 331q12 0 29 0.5t32 0t24.5 -3t6.5 -7.5q0 -9 -13 -9h-18.5t-12 0.5t-12 0.5h-19.5h-30q10 -14 10 -34q0 -13 -6 -29t-17.5 -29.5t-27.5 -23t-36 -9.5q-11 0 -17.5 5t-11 12.5t-6 16t-1.5 14.5q0 32 21.5 63t46.5 54q-21 2 -33.5 1.5t-22.5 -1.5t-19.5 -2t-22.5 -1
q0 -16 -8 -49.5t-23 -67t-37 -59t-50 -25.5q-12 0 -20 5.5t-13 13.5t-7 17t-2 16q0 36 14.5 69t35.5 57t45 36.5t44 8.5q5 -2 9.5 -1t9.5 0q44 5 80.5 4t46.5 -3q5 -1 8.5 -3t3.5 -5t-13.5 -16.5t-29 -32t-29 -40.5t-13.5 -43q0 -5 3 -15.5t13 -10.5q14 0 25.5 8t19.5 19
t12.5 23t4.5 21q0 15 -9 29t-9 19q0 3 5.5 4.5t13 2t15 0t10.5 -0.5zM7 168q20 0 37.5 23t31 52.5t21 58.5t7.5 42v10q-23 -1 -44 -19t-36.5 -42.5t-24.5 -49.5t-9 -40q0 -8 3 -20t14 -15z" />
    <glyph glyph-name="t_t" unicode="tt" horiz-adv-x="302" 
d="M-43 185q0 16 12.5 48t32.5 72.5t45 85.5t51 87q15 26 26.5 49.5t10.5 41t-19 28t-61 10.5q-52 0 -104.5 -8.5t-104.5 -8.5q-4 0 -8 3t-4 7q0 9 22.5 15t51 10t55 5.5t34.5 1.5q51 0 101 2t101 4q25 40 51.5 78.5t52.5 76.5l9 5q4 0 9 -2.5t5 -7.5q0 -1 -6.5 -11
t-17 -25.5t-22.5 -34t-23 -35t-19.5 -28.5t-10.5 -16q11 0 52.5 1t92.5 2q19 28 33 46.5t19 18.5t9.5 -1.5t4.5 -7.5l-10 -15q-5 -8 -11 -17.5t-14 -22.5q25 0 49 0.5t43.5 0.5t32 -0.5t15.5 -1.5q4 -1 8 -4t4 -8q0 -12 -12 -12h-155q-26 -42 -58.5 -96.5t-64 -111
t-58.5 -108.5t-42 -88q-12 -32 -17.5 -68t-4 -67t11 -52t26.5 -24q7 -2 9 -5.5t0.5 -7t-4.5 -6t-6 -2.5q-23 0 -36.5 21.5t-18 55.5t-0.5 75t18 80q11 35 33 81t49 97q-36 -48 -75 -96.5t-72 -85.5q-29 -33 -50 -50.5t-29 -17.5q-20 0 -31 12.5t-11 31.5zM212 614
q-57 -85 -111 -172.5t-98 -184.5q-14 -31 -18.5 -52.5t2.5 -28t25 4t49 43.5q22 23 47.5 54t52 65t52 68.5t48.5 65.5q7 10 18 26t23.5 34.5t26 39t26.5 40.5q-42 -1 -79.5 -1t-63.5 -1v-1zM163 579q5 9 10 17.5t10 17.5q-13 0 -25 -2t-25 -2q12 -5 17.5 -12.5t12.5 -18.5z
" />
    <glyph glyph-name="a_t" unicode="at" horiz-adv-x="412" 
d="M-4 191q-14 0 -21.5 11.5t-7.5 24.5q0 24 13.5 49t34.5 45.5t46.5 33t49.5 12.5q15 0 29.5 -5.5t25.5 -16.5q5 6 16 17.5t19 11.5q4 0 7 -3.5t3 -6.5q0 -7 -8 -22t-18 -33.5t-19.5 -38.5t-11.5 -37q-2 -21 4.5 -23.5t17 4.5t21.5 18l17 17q22 19 51.5 56.5t59.5 80t58 84
t47 69.5l11 17q-1 14 -11 23.5t-24.5 15.5t-29.5 9t-26 3q-52 0 -104.5 -8.5t-104.5 -8.5q-4 0 -8 3t-4 7q0 9 22.5 15t51 10t55 5.5t34.5 1.5q51 0 101 2t101 4q25 40 51.5 78.5t52.5 76.5l9 5q4 0 9 -2.5t5 -7.5q0 -1 -6.5 -11t-17 -25.5t-22.5 -34t-23 -35t-19.5 -28.5
t-10.5 -16q7 0 25 1t41 1.5t48 1t47 1t38 0t20 -1.5t8 -4t4 -8q0 -12 -12 -12h-117t-117 -2v-1q-47 -72 -90.5 -144.5t-81.5 -151.5q-20 -43 -40 -87.5t-25 -93.5q-3 -25 -3 -48.5t4.5 -42t13 -30.5t20.5 -14q7 -2 9 -5.5t0.5 -7t-4.5 -6t-6 -2.5q-18 0 -30 13t-19 34.5
t-8.5 50t2.5 58.5q6 49 23.5 97t40.5 97l6 12q-26 -34 -51 -65t-47 -55q-8 -9 -15 -15.5t-14 -11.5q-13 -10 -22.5 -13t-14.5 -3q-14 0 -22 12t-8 26q0 20 7.5 40.5t15.5 38.5q-9 -9 -28 -26.5t-41 -35.5t-44.5 -31t-38.5 -13zM112 344q-18 0 -39.5 -11t-39.5 -28.5
t-30.5 -37.5t-12.5 -38q0 -5 1.5 -9.5t6.5 -4.5q13 0 34 14.5t43.5 33.5t42.5 38t30 28q-15 15 -36 15zM458 579q5 9 10 17.5t10 17.5q-13 0 -25 -2t-25 -2q12 -5 17.5 -12.5t12.5 -18.5z" />
    <glyph glyph-name="i_t" unicode="it" horiz-adv-x="267" 
d="M361 614q-47 -72 -90.5 -144.5t-81.5 -151.5q-20 -43 -40 -87.5t-25 -93.5q-3 -25 -3 -48.5t4.5 -42t13 -30.5t20.5 -14q7 -2 9 -5.5t0.5 -7t-4.5 -6t-6 -2.5q-18 0 -30 13t-19 34.5t-8.5 50t2.5 58.5q6 49 23.5 97t40.5 97q7 14 12.5 25.5t11 22.5t12 22.5t15.5 25.5
q-23 -29 -48 -57.5t-49 -56t-46 -52.5t-40 -46q-17 -20 -25.5 -26t-13.5 -6q-12 0 -21.5 7.5t-9.5 20.5q0 21 11 47.5t27 53t34.5 50.5t33.5 41q3 4 7.5 3t7.5 -4t4 -7.5t-2 -7.5q-12 -16 -29 -38t-32 -45.5t-26 -47t-11 -42.5q0 -8 4.5 -7t10 6.5t11.5 12.5t9 10
q17 17 41.5 44t52.5 59t56 65.5t52.5 63.5t42.5 53.5t25 34.5q-1 14 -11 23.5t-24.5 15.5t-29.5 9t-26 3q-52 0 -104.5 -8.5t-104.5 -8.5q-4 0 -8 3t-4 7q0 9 22.5 15t51 10t55 5.5t34.5 1.5q51 0 101 2t101 4q25 40 51.5 78.5t52.5 76.5l9 5q4 0 9 -2.5t5 -7.5
q0 -1 -6.5 -11t-17 -25.5t-22.5 -34t-23 -35t-19.5 -28.5t-10.5 -16q7 0 25 1t41 1.5t48 1t47 1t38 0t20 -1.5t8 -4t4 -8q0 -12 -12 -12h-117t-117 -2v-1zM105 418q-8 0 -11 6q-2 6 2 10q3 4 5.5 7.5t6.5 10.5q1 6 8 6q5 0 8 -3.5t4 -8.5q0 1 -1 -3t-3.5 -9.5t-7 -10.5
t-11.5 -5zM312 579q5 9 10 17.5t10 17.5q-13 0 -25 -2t-25 -2q12 -5 17.5 -12.5t12.5 -18.5z" />
    <glyph glyph-name="u_t" unicode="ut" horiz-adv-x="486" 
d="M209 341q-13 -15 -37.5 -43t-53 -55t-56.5 -47.5t-48 -20.5q-17 0 -29 9.5t-12 27.5q0 11 9.5 42.5t23.5 64.5t28.5 58.5t25.5 25.5q3 0 8.5 -3t2.5 -13q-11 -16 -23.5 -38t-24 -46t-19 -48t-7.5 -43q0 -7 4.5 -10t10.5 -3q18 0 47.5 24t59.5 56t57 63.5t41 46.5
q3 3 8.5 5t10.5 1.5t8 -4t1 -11.5q-5 -22 -11.5 -42.5t-6.5 -43.5q0 -19 7 -25.5t17.5 -5t22 9t20.5 15.5q19 18 42.5 44.5t47.5 56t47 60t41 56.5l32 51q-1 14 -11 23.5t-24.5 15.5t-29.5 9t-26 3q-52 0 -104.5 -8.5t-104.5 -8.5q-4 0 -8 3t-4 7q0 9 22.5 15t51 10t55 5.5
t34.5 1.5q51 0 101 2t101 4q25 40 51.5 78.5t52.5 76.5l9 5q4 0 9 -2.5t5 -7.5q0 -1 -6.5 -11t-17 -25.5t-22.5 -34t-23 -35t-19.5 -28.5t-10.5 -16q8 0 25.5 1t40.5 1.5t48 1t47 1t38 0t20 -1.5t8 -4t4 -8q0 -12 -12 -12h-117t-117 -2v-1q-47 -72 -90.5 -144.5
t-81.5 -151.5q-20 -43 -40 -87.5t-25 -93.5q-3 -25 -3 -48.5t4.5 -42t13 -30.5t20.5 -14q7 -2 9 -5.5t0.5 -7t-4.5 -6t-6 -2.5q-18 0 -30 13t-19 34.5t-8.5 50t2.5 58.5q6 49 23.5 97t40.5 97l12 26q-23 -27 -48.5 -54t-45.5 -45q-15 -14 -31.5 -19t-30 0t-22.5 20.5
t-8 43.5q0 8 2.5 19t4.5 19zM521 579q5 9 10 17.5t10 17.5q-13 0 -25 -2t-25 -2q12 -5 17.5 -12.5t12.5 -18.5z" />
    <glyph glyph-name="s_t" unicode="st" horiz-adv-x="360" 
d="M-3 301q0 28 19.5 50.5t48 38.5t60 24t55.5 8q10 0 21 -1.5t20.5 -5.5t15.5 -11.5t6 -20.5q0 -4 -4 -8t-8 -4q-9 0 -9.5 4.5t-2 9.5t-8.5 9.5t-29 4.5q-18 0 -45.5 -6.5t-53.5 -18.5t-44.5 -30t-18.5 -41q0 -13 7 -23.5t16 -21t17.5 -21t11.5 -23.5q53 32 94.5 66.5
t77.5 75.5t69.5 90t71.5 110q-1 14 -11 23.5t-24.5 15.5t-29.5 9t-26 3q-52 0 -104.5 -8.5t-104.5 -8.5q-4 0 -8 3t-4 7q0 9 22.5 15t51 10t55 5.5t34.5 1.5q51 0 101 2t101 4q25 40 51.5 78.5t52.5 76.5l9 5q4 0 9 -2.5t5 -7.5q0 -1 -6.5 -11t-17 -25.5t-22.5 -34t-23 -35
t-19.5 -28.5t-10.5 -16q7 0 25 1t41 1.5t48 1t47 1t38 0t20 -1.5t8 -4t4 -8q0 -12 -12 -12h-117t-117 -2v-1q-47 -72 -90.5 -144.5t-81.5 -151.5q-20 -43 -40 -87.5t-25 -93.5q-3 -25 -3 -48.5t4.5 -42t13 -30.5t20.5 -14q7 -2 9 -5.5t0.5 -7t-4.5 -6t-6 -2.5q-18 0 -30 13
t-19 34.5t-8.5 50t2.5 58.5q6 49 23.5 97t40.5 97q0 1 1 2q-37 -38 -83.5 -76t-97.5 -70q0 -37 -24 -62t-61 -25q-11 0 -20.5 3t-9.5 17q6 13 16.5 24t23 21t25.5 19t25 17q-3 15 -12 26t-18.5 22t-17 23t-7.5 29zM-7 124q22 1 38 14.5t21 34.5q-15 -13 -31 -22.5t-28 -26.5
zM402 579q5 9 10 17.5t10 17.5q-13 0 -25 -2t-25 -2q12 -5 17.5 -12.5t12.5 -18.5z" />
    <glyph glyph-name="i_l" unicode="il" horiz-adv-x="287" 
d="M222 409q-54 -60 -100.5 -112.5t-97.5 -100.5q-11 -10 -18.5 -11.5t-9.5 -1.5q-12 0 -21.5 7.5t-9.5 20.5q0 21 11 47.5t27 53t34.5 50.5t33.5 41q3 4 7.5 3t7.5 -4t4 -7.5t-2 -7.5q-12 -16 -29 -38t-32 -45.5t-26 -47t-11 -42.5q0 -2 1 -5t5 -3q9 0 32 22.5t53 55.5
t63 69.5t60 65.5q13 13 32.5 39.5t42 58.5t45 65.5t42 61t32.5 45t16 17.5q5 0 9.5 -1.5t4.5 -7.5q-62 -99 -116 -190q-23 -39 -46.5 -80t-44.5 -80t-38.5 -73.5t-27.5 -60.5q-12 -32 -17.5 -68t-4 -67t11 -52t26.5 -24q7 -2 9 -5.5t0.5 -7t-4.5 -6t-6 -2.5
q-23 0 -36.5 21.5t-18 55.5t-0.5 75t18 80q6 17 15.5 40.5t21.5 49.5t25 53.5t27 52.5zM105 418q-8 0 -11 6q-2 6 2 10q3 4 5.5 7.5t6.5 10.5q1 6 8 6q5 0 8 -3.5t4 -8.5q0 1 -1 -3t-3.5 -9.5t-7 -10.5t-11.5 -5z" />
    <glyph glyph-name="a_l" unicode="al" horiz-adv-x="444" 
d="M-4 191q-14 0 -21.5 11.5t-7.5 24.5q0 24 13.5 49t34.5 45.5t46.5 33t49.5 12.5q15 0 29.5 -5.5t25.5 -16.5q5 6 16 17.5t19 11.5q4 0 7 -3.5t3 -6.5q0 -9 -13.5 -32t-26.5 -49q-18 -39 -21.5 -59t5 -23t27.5 10.5t46 42.5q24 25 49 54t49 58t46.5 57.5t40.5 53.5
q10 13 24.5 35t31.5 47.5t34.5 51.5t32.5 47t25.5 34.5t14.5 13.5q5 0 9.5 -1.5t4.5 -7.5q-62 -99 -116 -190q-23 -39 -46.5 -80t-44.5 -80t-38.5 -73.5t-27.5 -60.5q-12 -32 -17.5 -68t-4 -67t11 -52t26.5 -24q7 -2 9 -5.5t0.5 -7t-4.5 -6t-6 -2.5q-23 0 -36.5 21.5
t-18 55.5t-0.5 75t18 80q11 35 33 81t49 97q-29 -32 -64.5 -76t-71.5 -85q-22 -25 -43 -40t-37 -17.5t-26 8t-10 37.5q0 20 7.5 40.5t15.5 38.5q-9 -9 -28 -26.5t-41 -35.5t-44.5 -31t-38.5 -13zM112 344q-18 0 -39.5 -11t-39.5 -28.5t-30.5 -37.5t-12.5 -38q0 -5 1.5 -9.5
t6.5 -4.5q13 0 34 14.5t43.5 33.5t42.5 38t30 28q-15 15 -36 15z" />
    <glyph glyph-name="swash1" unicode="&#x2a;&#x31;" 
d="M376 72q6 -2 8 -9t-4 -11q-23 -15 -50 -6q-5 2 -2.5 8.5t5.5 11.5q-77 18 -173 20t-198 -8t-204.5 -31t-193.5 -49q-5 -2 -8.5 0t-4.5 5.5t1 7.5t8 6q119 37 242 61t254 29q32 1 73.5 1t85.5 -3t86 -11t75 -22zM461 66q6 -1 8.5 -5t2 -8.5t-3.5 -7.5t-9 -3q-7 1 -14 1.5
t-14 1.5q-6 0 -8.5 4t-2.5 8.5t3.5 8t9.5 3.5q7 -1 14 -1.5t14 -1.5z" />
    <glyph glyph-name="swash2" unicode="&#x2a;&#x32;" 
d="M286 118q40 -3 60 -7t17 -18q-2 -9 -11 -11q-36 -9 -77 -13.5t-83.5 -8t-85 -7.5t-81.5 -12q-5 0 -13.5 -2t-15 -5.5t-7 -8.5t10.5 -11q16 -9 38.5 -9.5t45.5 4.5q6 1 8.5 -3t2 -8.5t-3.5 -8t-9 -3.5q-30 -2 -61 3.5t-43 18.5q-10 10 -11 18t4 14t14.5 11t21.5 8
q34 10 75.5 14.5t85 6.5l87 4t82.5 9q8 1 10.5 2t-3 2.5t-19.5 3t-40 3.5q-44 3 -99.5 3.5t-115.5 -1t-123 -5t-122.5 -8.5t-113 -11.5t-95.5 -13.5q-6 -1 -9.5 2.5t-4 7.5t1.5 8t8 5q166 20 333 30.5t341 -3.5z" />
    <glyph glyph-name="swash3" unicode="&#x2a;&#x33;" 
d="M366 102q18 -1 21 -10.5t-19 -13.5q-10 -2 -21.5 -3t-20.5 -2q-5 -1 -11.5 -2t-11 0.5t-6 5.5t4.5 12q-42 1 -95 1.5t-110 -0.5t-116.5 -4t-114.5 -7.5t-103.5 -11.5t-83.5 -17q-6 -2 -9.5 1.5t-4.5 8t1 9t8 5.5q70 13 158.5 20.5t181.5 10.5t184.5 2t167.5 -5z" />
    <glyph glyph-name="swash4" unicode="&#x2a;&#x34;" 
d="M-292 35q35 28 84 51.5t104 39t113 22t113 1t103 -25t83 -55.5q8 -9 0 -17q-6 -7 -16 -8t-18 5t-6 12.5t10 10.5q-38 34 -102 47t-136.5 9.5t-143.5 -22.5t-123 -50q-6 -3 -16.5 -10t-21.5 -15.5t-20 -17.5t-11 -16q-1 -6 -5 -7.5t-8.5 -0.5t-7.5 4.5t-2 9.5q2 9 9.5 17
t17.5 16z" />
    <glyph glyph-name="swash5" unicode="&#x2a;&#x35;" 
d="M347 58q6 0 9 -4.5t3 -9t-3 -8t-9 -2.5q-54 6 -119.5 8t-129 0t-117.5 -7.5t-84 -14.5q-5 -1 -8 2t-3.5 7.5t1.5 8.5t7 5q35 9 67.5 19t65.5 20t67 19t71 16q4 1 8.5 2.5t6.5 3t-0.5 2.5t-13.5 2q-70 4 -146.5 -1.5t-153.5 -16.5t-152.5 -27t-143.5 -34q-6 -2 -9.5 1
t-5 7.5t0 8.5t7.5 6l23 7q139 35 281.5 52.5t293.5 12.5q10 0 18 -0.5t13 -9.5q4 -8 2.5 -17.5t-8.5 -11.5q-6 -2 -26 -6.5t-46.5 -10.5t-56 -13t-55 -13.5t-43.5 -11.5t-21 -7q42 9 97.5 13t112.5 5t110 0t89 -2z" />
    <glyph glyph-name=".notdef" horiz-adv-x="292" 
 />
    <glyph glyph-name="NULL" 
 />
    <glyph glyph-name="NULL" 
 />
    <glyph glyph-name="nonmarkingreturn" unicode="&#xd;" horiz-adv-x="292" 
 />
    <glyph glyph-name="space" unicode=" " horiz-adv-x="292" 
 />
    <glyph glyph-name="question" unicode="?" horiz-adv-x="359" 
d="M323 742q20 0 38.5 -4t32.5 -13t22.5 -24.5t8.5 -38.5q0 -36 -20.5 -67t-52.5 -60t-71 -57t-75.5 -58t-66.5 -64t-44 -75q-5 -8 -13 -5t-8 12q3 33 29 64.5t62.5 63t78 62.5t77 61.5t59 60.5t23.5 60q0 20 -7.5 31.5t-20 17.5t-28 7.5t-30.5 1.5q-35 0 -68.5 -9
t-64.5 -25t-57 -39.5t-45 -51.5q-7 -11 -14 -22.5t-7 -24.5q0 -11 5.5 -19t16.5 -11q7 -3 8.5 -7t0 -7t-4.5 -5t-4 -2q-22 0 -33.5 14.5t-11.5 34.5q0 42 31 78.5t75.5 63t93.5 41.5t85 15zM68 236q15 -4 14 -11t-7 -15q-3 -5 -6.5 -11t-8.5 -11q-8 -5 -13 0.5t-3 21.5
q8 21 13.5 24.5t10.5 1.5z" />
    <glyph glyph-name="underscore" unicode="_" horiz-adv-x="317" 
d="M221 82q11 -3 8 -13t-8 -10h-251q-3 0 -7 4t-4 7q0 12 11 12h251v0z" />
    <glyph glyph-name="Z" unicode="Z" horiz-adv-x="427" 
d="M510 704q-1 -17 -24.5 -47.5t-59 -68t-79 -78t-85 -77.5t-76.5 -67.5t-53 -46.5q27 1 54 4t55 1q22 -2 38.5 -15.5t14.5 -37.5t-12 -43q4 -1 26 10t47 24.5t46 25t25 12.5q7 1 9 -7t-4 -12q-10 -7 -34 -20t-50 -26.5t-49.5 -24.5t-31.5 -15q-9 -16 -25.5 -38.5t-37.5 -46
t-44.5 -46t-48 -40.5t-49 -28.5t-45.5 -8.5q-14 1 -24.5 11.5t-8.5 24.5q2 27 35 56t77 55t87.5 47t66.5 32q5 11 12.5 28.5t8.5 29.5q2 17 -9 22.5t-26 7.5q-26 2 -55 -1t-55 -5q-8 0 -14.5 2.5t-6.5 15.5q0 5 12 17q16 18 49.5 48.5t74.5 67t84 76t78.5 75t59 64
t24.5 43.5q2 15 -15 17q-23 2 -61 -5.5t-82.5 -21.5t-89.5 -33.5t-82.5 -42.5t-61.5 -48.5t-26 -50.5q-2 -20 4.5 -31t15.5 -18t19 -13.5t17 -18.5q0 -5 -4.5 -7.5t-9.5 -2.5q-14 1 -26 11t-21 23.5t-14 29t-4 27.5q2 31 27.5 60.5t65 55t88 46.5t96.5 35t90 21t70 5
q13 -1 20.5 -14t6.5 -24zM21 11q21 -2 52 18t62 47.5t57 56t37 45.5q-11 -5 -31.5 -15.5t-45 -24t-50.5 -29.5t-47.5 -31.5t-35.5 -30.5t-15 -26q2 -4 7 -7t10 -3z" />
    <glyph glyph-name="Y" unicode="Y" horiz-adv-x="532" 
d="M621 725q0 -3 -17 -35.5t-43 -80t-57.5 -104t-60.5 -108t-52 -92t-32 -55.5q23 2 48.5 8.5t48.5 14.5t42 15.5t30 11.5q13 5 13 -11q-1 -8 -23 -18t-52.5 -19.5t-65 -18t-60.5 -12.5q-17 -34 -38.5 -74t-49.5 -74.5t-63 -58t-78 -23.5q-18 0 -36.5 7t-33.5 19t-24 28.5
t-9 36.5q0 28 17.5 49.5t45.5 37.5t63.5 27t71 20t67.5 15.5t54 12.5q55 99 114.5 206t116.5 204q-14 -14 -47.5 -46.5t-76 -73t-90 -84.5t-91 -80t-78 -59t-50.5 -23q-15 0 -21.5 11t-6.5 25q0 18 12 46t30.5 60.5t40 67.5t40 67.5t30.5 60t12 45.5q0 4 -2 8.5t-7 4.5
q-15 0 -35 -13.5t-42.5 -34.5t-45.5 -47t-43 -51.5t-35 -47.5t-22 -35q-9 -4 -13.5 1t-4.5 9q0 13 14 36.5t36 50.5t49.5 54.5t54.5 50.5t50 37t37 14q15 0 23.5 -12t8.5 -25q0 -29 -21.5 -72t-49.5 -90t-54.5 -91.5t-36.5 -74.5q-1 -2 -2.5 -7t-1.5 -10t1.5 -9t6.5 -4
q16 0 57 31t94 78t110.5 101.5t106 101.5t80.5 78t34 31q3 0 7.5 -3t4.5 -6zM311 215q-17 -5 -44 -10.5t-58.5 -13t-63 -17t-57.5 -22t-42 -29.5t-16 -38q0 -16 7.5 -29t19.5 -22t26.5 -14t28.5 -5q39 0 68.5 20.5t53 51t42 65t35.5 63.5z" />
    <glyph glyph-name="X" unicode="X" horiz-adv-x="694" 
d="M361 114q19 0 49 14.5t64.5 36.5t70.5 48t67 48t53 36.5t30 14.5q5 0 7 -5t2 -8q0 -7 -4 -10q-13 -10 -39 -29t-59 -41t-69 -45t-69 -41.5t-60 -30.5t-41 -12q-23 0 -39 11t-25.5 28t-14 37.5t-4.5 39.5q0 37 6.5 73t14.5 71l-23 -24q-35 -38 -70 -80.5t-69 -85.5
t-68 -84t-67 -75q-4 -4 -6 -4q-5 0 -9 2.5t-4 8.5q0 5 21.5 33.5t55 68.5t73.5 86t76 87.5t63 72t36 40.5q6 18 15 47.5t18 61t15 61t6 46.5l-4 8q-17 -11 -32.5 -24t-32.5 -26q-38 -31 -75.5 -63t-73.5 -66q-16 -15 -33 -34t-34 -32q-3 -3 -7 -3q-5 0 -9.5 4t-4.5 9
q0 3 20.5 23.5t51.5 49t68.5 61t71.5 60.5t60 46t34 18q14 0 18 -11t4 -22q0 -16 -4 -40t-10.5 -50t-14 -49.5t-13.5 -38.5q15 15 48 47t74 71t87.5 80t88.5 75t76.5 55.5t53.5 21.5q3 0 6.5 -3t3.5 -6q0 -6 -5.5 -16t-13 -19.5t-16 -17t-14.5 -7.5q-4 0 -7 3.5t-3 7.5
q0 5 4 9l7 7q-55 -32 -108.5 -74t-104 -89t-98.5 -96t-91 -95q-10 -43 -19 -87t-9 -88q0 -14 2.5 -30.5t9 -31.5t17.5 -25t28 -10z" />
    <glyph glyph-name="W" unicode="W" horiz-adv-x="858" 
d="M871 838q18 0 29 -9t17 -22t8 -27.5t2 -25.5q0 -36 -12.5 -89.5t-35.5 -117.5t-54 -134t-68.5 -137.5t-80 -128t-87 -107t-90 -73.5t-89.5 -27q-38 0 -59.5 18.5t-32.5 45t-13.5 56t-2.5 51.5q0 60 9.5 121.5t26 122t38.5 120t46 116.5q-41 -41 -77 -84.5t-72.5 -87
t-75 -85.5t-83.5 -80h-18q-11 10 -11 24q0 24 17 63.5t40 84t46.5 89t37.5 79.5q20 49 4.5 54.5t-60.5 -37.5q-22 -21 -43 -47.5t-40 -52.5t-34.5 -49t-25.5 -37q-4 -6 -10 -6q-5 0 -9 3.5t-4 8.5q0 11 13.5 33.5t35.5 50t48.5 56t52.5 52.5t48.5 39t36.5 15t20.5 -10.5
t6.5 -18.5q0 -16 -10 -43t-25 -60.5t-33.5 -70t-35.5 -72t-31.5 -67t-20.5 -54.5q43 38 80 79.5t72.5 84.5t71.5 86t77 83q6 7 13 7.5t12.5 -2.5t9 -8t3.5 -9q0 -6 -2.5 -12t-4.5 -11q-23 -59 -43.5 -118.5t-36 -119.5t-25 -121t-9.5 -123q0 -17 2 -40t10.5 -44.5
t24.5 -36.5t45 -15q38 0 67 20t53 40q42 37 86.5 90.5t85.5 117t77.5 133t63.5 138t42.5 132.5t15.5 117q0 5 -0.5 16.5t-3.5 23t-8.5 20.5t-15.5 9q-11 0 -22 -6t-21 -15t-18.5 -18.5t-14.5 -15.5q-60 -71 -98.5 -149t-54.5 -163q-4 -20 -4.5 -41t-5.5 -41q-1 -2 -4 -5.5
t-7 -3.5q-12 0 -12 9q0 54 12 108.5t34.5 106.5t53.5 100.5t70 92.5q8 9 17 20t20 20t24 15t29 6z" />
    <glyph glyph-name="V" unicode="V" horiz-adv-x="496" 
d="M109 49q140 230 330.5 430t438.5 355q10 6 25.5 14.5t33.5 16.5t36 15t33 10q8 2 13.5 1.5t5.5 -12.5q-2 -11 -9 -12q-41 -17 -74 -32t-70 -37q-147 -89 -271 -197.5t-230 -231.5q-59 -68 -110.5 -139t-99.5 -143q-18 -30 -35 -61.5t-37 -60.5q-2 -2 -6.5 -4.5t-8.5 -2.5
q-11 0 -11 8q7 55 25 112t41 114t48.5 113t48.5 109q14 32 30.5 67.5t28.5 71.5q20 62 6.5 72.5t-69.5 -32.5q-30 -24 -66 -57t-67 -65t-52.5 -59t-22.5 -38q0 -2 6 -6q3 -8 -1 -14t-10 -6q-10 0 -14.5 8.5t-3.5 17.5q2 13 20.5 38t46 56t61.5 63t66 58t59 43t42 17
q23 0 32 -12t6 -29q-6 -48 -27.5 -94t-42.5 -92q-40 -93 -77.5 -185.5t-67.5 -187.5z" />
    <glyph glyph-name="U" unicode="U" horiz-adv-x="759" 
d="M280 159q24 0 61.5 24.5t83.5 64t97.5 90.5t102 104.5t97 104.5t83 90.5t60.5 64t29 24.5t9 -3t2 -8q-1 -3 -10 -20t-25 -45q-21 -36 -54 -90.5t-69.5 -118t-73 -131.5t-65 -131t-45 -116.5t-13.5 -88.5q0 -5 -4.5 -7t-7.5 -2q-17 0 -17.5 23t11.5 62t34.5 90.5
t50.5 108.5t60 116t63.5 113.5t60 100t50.5 76.5q-32 -35 -80.5 -87t-104 -109.5t-114 -115.5t-111.5 -104t-96 -75t-66 -29q-18 0 -29 8t-17 20.5t-7 28t2 31.5q8 46 32.5 102t55.5 112t62 107t52 88q62 114 -55 55q-26 -13 -53 -30t-52.5 -35t-48.5 -35t-40 -30
q-29 -23 -59 -46t-55 -51q-9 -10 -16.5 -22t-15.5 -21q-5 -5 -13 -5h-4q-4 6 -3 11q1 4 3 6q10 20 40 51t71.5 65t89 68t93 61.5t83.5 44.5t60 17q17 0 22.5 -12t3.5 -27q-3 -20 -19.5 -52t-40 -71t-50.5 -84t-51 -91t-43 -91t-25 -85q-2 -9 -2 -20.5t2.5 -21t9 -16
t18.5 -6.5z" />
    <glyph glyph-name="T" unicode="T" horiz-adv-x="364" 
d="M641 745q22 0 56.5 1t75.5 2t84.5 2t83 1.5t70.5 -0.5t48 -3q3 -1 7 -4t4 -7q0 -11 -11 -11q-60 0 -118 -2t-118 -2q-95 0 -189.5 -1t-189.5 -2q-92 -152 -171 -307.5t-154 -316.5q2 -2 3.5 -5t1.5 -4q0 -4 -11 -27t-25 -51t-27 -53.5t-17 -32.5l-10 -5q-2 -1 -7 1t-5 5
q0 14 14.5 51.5t38.5 90t55.5 116t66 130t68.5 131t64.5 120t53.5 96.5t35 61q-93 1 -185.5 -0.5t-185.5 -3.5q5 -8 0.5 -13t-12.5 -5q-3 0 -12 3t-19 8t-17.5 10t-7.5 10q0 9 11 11q57 6 118 3t118 -2q52 1 103 2t103 1l9 14l10 7q3 0 7 -2.5t4 -6.5q0 -2 -0.5 -6.5
t-3.5 -5.5z" />
    <glyph glyph-name="S" unicode="S" horiz-adv-x="683" 
d="M694 290q-1 -10 -20.5 -27t-49 -36t-63.5 -38.5t-64 -34.5q-3 -24 -22 -50.5t-47.5 -52.5t-63.5 -49.5t-70 -40.5t-67.5 -27t-55.5 -8q-11 1 -23 11t-11 21q1 18 22 39t52.5 42t70 41.5t75.5 38t68.5 30.5t48.5 20q-1 24 -21.5 40t-53.5 27.5t-75.5 20t-86 17t-85 19.5
t-73.5 27t-50.5 39.5t-16.5 57.5q2 42 32 83.5t76 78t103.5 67.5t115.5 53t110.5 33.5t90.5 9.5q20 -2 41 -7.5t37.5 -16t26 -27.5t8.5 -41q-1 -16 -10.5 -40.5t-24.5 -51.5t-33 -54.5t-36 -49.5t-34.5 -36t-27.5 -13q-6 1 -10 5t-3 9q0 1 8 8.5t17.5 16t18.5 16.5t12 11
q14 15 31 37t32 46t25.5 48.5t11.5 45.5t-7 33.5t-21.5 20t-30.5 11t-33 4.5q-36 2 -86 -8.5t-105 -31.5t-109.5 -50t-98.5 -63.5t-72.5 -72.5t-30.5 -76q-2 -28 16 -47.5t49 -33t71.5 -23t83.5 -18t84.5 -17t75 -21t55.5 -30.5t25 -44q45 22 87 48t80 59q7 6 12 10t9 5
q10 -2 10 -13zM469 142q-13 -5 -40.5 -17t-61.5 -28t-70 -35t-66.5 -37.5t-50 -35.5t-20.5 -29q0 -3 2 -5l5 -2.5t5 -1.5q18 -1 46 7.5t59.5 24t64 35.5t59.5 41.5t45.5 43t22.5 39.5z" />
    <glyph glyph-name="R" unicode="R" horiz-adv-x="946" 
d="M558 768q29 0 71.5 -1.5t89 -7t92 -16.5t82 -31t59 -49.5t22.5 -71.5q0 -45 -25 -85t-65.5 -75t-92 -64t-104.5 -51.5t-102.5 -37t-85.5 -20.5q63 -14 126 -28.5t128 -24.5q30 -5 62.5 -5.5t61.5 -5.5q3 -1 6.5 -4.5t3.5 -7.5q0 -11 -10 -11q-55 0 -108 8.5t-105 20.5
t-104.5 24.5t-105.5 20.5q-5 1 -10.5 2t-10.5 1q-14 0 -28.5 -1.5t-28.5 -2.5q-17 -35 -32.5 -69.5t-30.5 -69.5q4 -6 -1.5 -23t-15 -36.5t-19.5 -37l-14 -24.5l-10 -5q-2 0 -7 1.5t-5 5.5q0 5 7 23.5t18 44.5t24 56t25 57t21.5 48t13.5 29q-18 -1 -41 -1.5t-47 1.5t-46 7
t-37 16l-5 9q0 7 8 11.5t18.5 7t21 3.5t15.5 1q33 0 67 -5t67 -9q8 18 28 56.5t46 86.5t56 99t59.5 93t55 69t42.5 27q9 0 13 -11q0 -9 -13 -13q-20 -5 -31.5 -21.5t-23.5 -32.5q-63 -81 -113.5 -174t-96.5 -184q11 -2 20.5 -4t20.5 -4q37 5 89.5 17.5t110 32.5t114.5 47
t102 61.5t73 75t28 87.5q0 35 -21 60t-55 42t-76 26.5t-84 15t-80 7t-62 1.5q-37 0 -84.5 -3.5t-100 -10.5t-106.5 -17.5t-104 -25.5t-92 -34.5t-70 -43.5h-18q-2 4 -2.5 6.5t-0.5 6.5q0 3 5.5 7.5t13 10t14 9.5t9.5 6q47 28 114 49t139.5 35t143 21t124.5 7zM219 273
q27 -2 53 -4t53 -2h9q-20 3 -41.5 5.5t-41.5 2.5h-16t-16 -2z" />
    <glyph glyph-name="Q" unicode="Q" horiz-adv-x="639" 
d="M604 11h16.5t19.5 -2q12 -4 10.5 -13t-15.5 -9q-43 2 -85 -5t-83.5 -16.5t-83 -17.5t-83.5 -8q-35 0 -62.5 12.5t-40.5 47.5q-42 -3 -78.5 5.5t-62.5 28.5t-41 53t-15 79q0 29 6.5 57t16.5 55q-6 11 -8 24.5t-2 26.5q0 43 20 89.5t53.5 91t77 85t91 71t96 48.5t91.5 18
q42 0 73 -16.5t50.5 -44.5t29 -63.5t9.5 -72.5q0 -82 -29 -168t-80.5 -160.5t-121.5 -128.5t-152 -73q2 -14 11.5 -22t22 -12.5t26 -5.5t24.5 -1q38 0 75 7.5t74 16t74.5 16t75.5 7.5zM440 709q-39 0 -84 -17t-90 -46t-86.5 -67.5t-73.5 -80.5t-51 -86t-19 -83
q0 -5 0.5 -9.5t1.5 -9.5q23 47 60 97t81.5 94t94 78.5t99.5 51.5q2 1 5 1q2 0 5.5 -3t3.5 -5q0 -5 -10 -12t-23.5 -14t-26 -13.5t-18.5 -9.5q-40 -24 -78 -57.5t-71.5 -72.5t-62 -81.5t-49.5 -83.5q14 -18 35.5 -24.5t44.5 -6.5q21 0 42 3t42 3q18 0 30.5 -8t12.5 -28
q0 -23 -5.5 -46.5t-12.5 -47.5t-13.5 -48t-7.5 -48q78 15 145 68.5t116 126t77 155.5t28 158q0 33 -8.5 64t-26.5 55t-44.5 38.5t-62.5 14.5zM23 176q0 -70 35.5 -112.5t107.5 -42.5q7 0 13.5 0.5t13.5 1.5q0 41 11.5 80.5t21.5 79.5q1 4 3 12.5t1.5 16.5t-4 14t-12.5 6
q-22 0 -44.5 -3.5t-45.5 -3.5q-29 0 -45.5 7.5t-39.5 23.5q-3 -7 -5.5 -18l-5 -22t-4 -22t-1.5 -18z" />
    <glyph glyph-name="P" unicode="P" horiz-adv-x="833" 
d="M100 487q-17 3 -35 8t-33 14t-25 23.5t-10 35.5q0 34 31 62t79 50.5t107 39t116 27.5t104.5 16.5t73.5 5.5q53 0 114.5 -7t114 -29.5t87 -64.5t34.5 -111q0 -32 -10 -63.5t-26 -60.5t-36.5 -55.5t-42.5 -47.5q-47 -46 -105 -80t-121 -56t-129.5 -32.5t-131.5 -10.5
q-16 0 -31 2t-30 3q-18 -46 -32.5 -97.5t-35.5 -95.5q-2 -3 -5 -6t-6 -3q-2 0 -6.5 1.5t-4.5 5.5q0 10 8.5 38t19.5 59.5t22 60.5t16 42q-9 3 -22 7t-24.5 10t-19.5 15t-8 22q0 15 15.5 27.5t36.5 22t43 16t34 8.5q57 123 126 236t150 221q-22 0 -66 -5t-97.5 -15.5
t-110 -26.5t-103 -36t-76 -44t-29.5 -52q0 -23 14.5 -33.5t32.5 -15.5t32.5 -7.5t14.5 -8.5v-6zM122 213q0 -5 7.5 -10t17 -9.5t19 -7t14.5 -3.5q8 20 16.5 40t16.5 40q-6 -3 -21 -8t-30.5 -11.5t-27.5 -14.5t-12 -16zM836 556q0 59 -30.5 96.5t-76 58.5t-98.5 29t-99 8
q-164 -214 -279 -454q3 0 9 1.5t12 1.5t10.5 -2t4.5 -8t-5.5 -9.5t-13 -5t-15.5 -2t-12 -1.5q-11 -22 -21 -44.5t-19 -45.5q12 -2 24.5 -3.5t25.5 -1.5q70 0 142 12t139 37.5t126.5 66t104.5 96.5q29 35 50 79.5t21 90.5z" />
    <glyph glyph-name="z" unicode="z" horiz-adv-x="327" 
d="M223 198q19 0 37 5.5t35 5.5q12 0 12 -13q0 -7 -10.5 -11t-24 -6.5t-26.5 -3t-19 -0.5q-32 0 -63 3t-63 3q-30 0 -53 -9t-39 -19.5t-25.5 -19t-12.5 -8.5q-4 0 -8.5 3t-4.5 8q0 6 6.5 14t15 16t18 13.5t15.5 7.5q20 17 39.5 35.5t39.5 35.5q-5 0 -15 -1t-20 -1t-18 2.5
t-8 9.5q0 6 11 9t25.5 4.5t29 2t20.5 2.5q14 14 34.5 35.5t39.5 45t33 48t17 44.5q-2 4 -8.5 2.5t-9.5 -2.5q-18 -6 -42.5 -25t-48 -42.5t-42 -46t-25.5 -34.5l-10 -5q-12 0 -12 12q0 8 11.5 24t29 34.5t40 38t44 35t40.5 25.5t30 10q13 0 19 -9.5t6 -20.5q0 -19 -12.5 -42
t-30 -46t-36 -44t-31.5 -35q7 2 12.5 -0.5t5.5 -10.5q0 -3 -2.5 -6.5t-4.5 -5.5l-35 -3q-14 -16 -30 -30t-32 -29q40 4 78.5 -0.5t77.5 -4.5z" />
    <glyph glyph-name="y" unicode="y" horiz-adv-x="252" 
d="M207 209q0 -5 -12.5 -10t-29 -9t-32 -7.5t-21.5 -4.5q-21 -37 -45 -77.5t-54 -74.5t-68.5 -56t-87.5 -22q-16 0 -38.5 4.5t-43.5 13.5t-35.5 23.5t-14.5 34.5q0 19 23 38.5t59 37.5t79.5 34t84.5 29t74.5 22t49.5 14q15 29 30 58.5t29 58.5q-10 -10 -28 -25.5t-39 -30.5
t-41.5 -25.5t-33.5 -10.5q-12 0 -20 7.5t-8 19.5t6.5 30t15.5 37.5t19 38t17 30.5q2 4 7 7.5t10 1.5q8 -4 8 -8q0 -6 -9.5 -23t-20.5 -37.5t-20.5 -41t-9.5 -32.5q0 -1 0.5 -4t3.5 -3q12 0 29 10t36.5 24.5t38.5 32t35.5 32t28 24.5t15.5 10q5 0 8 -4t3 -8q0 -2 -11.5 -25
t-25.5 -52t-27 -54.5t-16 -31.5q3 1 14 4t23 6t22 5t12 2q5 0 8 -4t3 -9zM-149 -29q42 0 77 18.5t63.5 47.5t50.5 64.5t39 69.5q-13 -4 -42.5 -12.5t-66.5 -20t-77 -26t-72.5 -30t-53.5 -30.5t-21 -29q0 -12 12.5 -21.5t29.5 -16t34.5 -10.5t26.5 -4z" />
    <glyph glyph-name="x" unicode="x" horiz-adv-x="330" 
d="M340 290q0 -10 -14.5 -23t-36.5 -27.5t-49.5 -28.5t-53 -25t-47 -18t-32.5 -7q-16 0 -26 5.5t-16 14.5t-9 20.5t-5 24.5q-6 -6 -26.5 -30.5t-44.5 -53t-46 -54.5t-31 -36q-3 -3 -7 -2t-7 4t-4.5 6.5t0.5 5.5q38 48 80.5 96.5t82.5 96.5q0 31 5.5 64t16.5 62
q-11 -11 -17.5 -21.5t-11.5 -21t-9.5 -22t-11.5 -24.5l-5 -5t-6 -3q-8 0 -10.5 4.5t-2.5 10.5q0 10 10 29.5t23.5 39t28.5 34t25 14.5q2 0 4.5 -3.5t5.5 -7.5t5 -8t2 -5q-23 -53 -26 -112q9 10 30 30.5t48 46.5t57 53t57 49t49 36.5t32 14.5q5 0 10.5 -2t9.5 -16q0 -7 -6 -8
t-10 4q-6 2 -27 -13t-50 -40t-61.5 -55t-61.5 -58t-51 -49t-28 -28q2 -9 2.5 -20t3 -21t9 -16.5t20.5 -6.5q28 0 67 18.5t74 41.5q41 26 85 61q5 0 6 -5.5t1 -10.5z" />
    <glyph glyph-name="w" unicode="w" horiz-adv-x="383" 
d="M280 317q-10 -19 -28 -52t-40.5 -65.5t-47.5 -56t-49 -23.5q-17 0 -25.5 13t-8.5 28q0 13 4.5 29.5t10.5 34t12.5 34.5t11.5 29q-8 -7 -20.5 -16.5t-27 -18.5t-28.5 -15t-25 -6q-16 0 -23 10q-5 7 -5 20q0 14 7 37t17 45t21 38t19 16q2 0 4 -0.5t5 -3.5t4 -5t-2 -7
q-5 -8 -14 -23t-18 -32t-15.5 -34t-6.5 -28q0 -10 8 -10q14 0 34.5 13.5t40 29.5t36 29.5t22.5 13.5q3 0 7.5 -2t4.5 -7q0 -3 -9.5 -24t-21 -48t-21 -55t-9.5 -44q0 -5 2 -10.5t8 -5.5q14 0 30 13.5t32.5 35t33 48t30.5 52.5t25 48.5t17 35.5q3 6 12 6t9 -13q0 -6 -2.5 -12
t-2.5 -14q0 -23 13.5 -38t36.5 -15q14 0 25 6t13 6q4 0 4.5 -4.5t0.5 -7.5q-4 -11 -17.5 -17t-23.5 -6q-23 0 -42 13.5t-28 34.5z" />
    <glyph glyph-name="v" unicode="v" horiz-adv-x="285" 
d="M167 298q0 23 8.5 42.5t10.5 40.5q-5 -9 -17.5 -29.5t-30 -46t-37.5 -53t-40 -50t-38 -37t-31 -14.5q-12 0 -18 9.5t-6 20.5q0 21 5 44.5t12.5 47t17.5 45.5t21 40q10 8 16.5 0.5t6.5 -12.5q0 -2 -0.5 -2t-1.5 -2q-20 -41 -37 -80.5t-17 -86.5v-2q37 28 71.5 69.5
t64 84.5t53 81.5t39.5 60.5q5 5 13 0t8 -12q0 -3 -8 -23t-17.5 -46t-17.5 -51t-8 -38q0 -21 21 -21q10 0 23 4t24.5 8.5t19.5 8.5t9 4q10 0 10 -16q0 -5 -12 -11t-27 -11t-29.5 -8t-19.5 -3q-19 0 -30 13t-11 31z" />
    <glyph glyph-name="u" unicode="u" horiz-adv-x="366" 
d="M209 341q-13 -15 -37.5 -43t-53 -55t-56.5 -47.5t-48 -20.5q-17 0 -29 9.5t-12 27.5q0 11 9.5 42.5t23.5 64.5t28.5 58.5t25.5 25.5q3 0 8.5 -3t2.5 -13q-11 -16 -23.5 -38t-24 -46t-19 -48t-7.5 -43q0 -7 4.5 -10t10.5 -3q18 0 47.5 24t59.5 56t57 63.5t41 46.5
q3 3 8.5 5t10.5 1.5t8 -4t1 -11.5q-5 -22 -11.5 -42.5t-6.5 -43.5q0 -14 7 -23t22 -9q12 0 30 6.5t35 14.5t30 14.5t15 6.5q9 0 9 -13q0 -7 -16 -16t-37 -17t-40.5 -13.5t-26.5 -5.5q-27 0 -40 19.5t-13 44.5q0 8 2.5 19t4.5 19z" />
    <glyph glyph-name="t" unicode="t" horiz-adv-x="159" 
d="M-164 590q-4 0 -8 3t-4 7q0 9 22.5 15t51 10t55 5.5t34.5 1.5q51 0 101 2t101 4q25 40 51.5 78.5t52.5 76.5l9 5q4 0 9 -2.5t5 -7.5q0 -1 -6.5 -11t-17 -25.5t-22.5 -34t-23 -35t-19.5 -28.5t-10.5 -16q7 0 25 1t41 1.5t48.5 1t47 1t37.5 0t20 -1.5t8 -4t4 -8
q0 -12 -12 -12h-117t-117 -2v-1q-26 -39 -57 -87.5t-60.5 -100t-54 -103t-36.5 -96.5q-3 -10 -3.5 -18t4 -11t14 -0.5t27.5 13.5q18 10 37 23.5t36 26t29.5 23.5t17.5 16t8 2t3 -10q0 -5 -11 -16t-28 -24.5t-37.5 -28.5t-40 -27t-35.5 -19.5t-23 -7.5q-12 0 -17 9.5t-7 20.5
q-3 19 9.5 55.5t33 80t45.5 88.5t48 82q9 15 17 27.5t15 23.5q-1 14 -11 23.5t-24.5 15.5t-29.5 9t-26 3q-52 0 -104.5 -8.5t-104.5 -8.5zM153 579q5 9 10 17.5t10 17.5q-13 0 -25 -2t-25 -2q12 -5 17.5 -12.5t12.5 -18.5z" />
    <glyph glyph-name="s" unicode="s" horiz-adv-x="248" 
d="M-3 301q0 28 19.5 50.5t48 38.5t60 24t55.5 8q10 0 21 -1.5t20.5 -5.5t15.5 -11.5t6 -20.5q0 -4 -4 -8t-8 -4q-9 0 -9.5 4.5t-2 9.5t-8.5 9.5t-29 4.5q-18 0 -45.5 -6.5t-53.5 -18.5t-44.5 -30t-18.5 -41q0 -13 7 -23.5t16 -21t17.5 -21t11.5 -23.5q5 3 19 11t32 18
t38 20.5t38 19.5t31 15t18 6q8 0 8 -9q0 -7 -5 -14q-19 -8 -42 -19.5t-46.5 -24.5t-45.5 -26.5t-40 -23.5q0 -37 -24 -62t-61 -25q-11 0 -20.5 3t-9.5 17q6 13 16.5 24t23 21t25.5 19t25 17q-3 15 -12 26t-18.5 22t-17 23t-7.5 29zM-7 124q22 1 38 14.5t21 34.5
q-15 -13 -31 -22.5t-28 -26.5z" />
    <glyph glyph-name="r" unicode="r" horiz-adv-x="242" 
d="M130 306q0 9 -0.5 18t-4 13.5t-10.5 3t-20 -13.5q-20 -18 -48.5 -49.5t-54.5 -61.5t-44.5 -52t-19.5 -22q-5 0 -9 3t-4 9q0 3 2 6q31 52 61 104t57 107l9 6q13 0 13 -13q0 -2 -6 -14.5t-13.5 -27.5t-15 -28.5t-9.5 -17.5q7 8 21 23.5t30 30.5t31.5 26.5t26.5 11.5
q17 0 24.5 -13.5t7.5 -27.5v-16.5t2 -15.5t7.5 -11.5t17.5 -4.5q9 0 18 4t17 9t15 9t12 4q4 0 5.5 -4.5t1.5 -6.5q0 -6 -8.5 -13t-20.5 -12.5t-23.5 -9t-17.5 -3.5q-22 0 -36 14t-14 36z" />
    <glyph glyph-name="q" unicode="q" horiz-adv-x="223" 
d="M168 380l10 10t13 12t13.5 10t11.5 4t8 -4t3 -8q0 -2 -16.5 -25.5t-42 -61t-54.5 -84.5t-54.5 -94.5t-42 -91.5t-16.5 -76q0 -17 7 -25.5t7 -10.5q0 -5 -2.5 -10.5t-8.5 -5.5q-8 0 -13 5.5t-8 13.5t-4 16.5t-1 14.5q0 39 19 89.5t46.5 102t57.5 98t52 78.5
q-14 -11 -32 -27t-37.5 -30t-39.5 -24t-38 -10q-10 0 -14.5 8t-4.5 17q0 16 17 37.5t40.5 40.5t48.5 32t41 13q20 0 34 -14zM10 267q14 2 33 14t39 27.5t38.5 31t30.5 24.5q-11 7 -21 7q-11 0 -31 -12t-39.5 -28.5t-34.5 -34t-15 -27.5v-2z" />
    <glyph glyph-name="o" unicode="o" horiz-adv-x="233" 
d="M238 292q0 -7 -13 -13t-30 -10.5t-33.5 -7t-22.5 -3.5q-6 -11 -15.5 -24.5t-21.5 -25.5t-25 -20t-27 -8q-15 0 -23.5 11t-8.5 25q0 11 4.5 23t7.5 23q-14 5 -24 15t-10 25q0 17 9 30.5t23 22.5t30.5 14t31.5 5q29 0 47 -17t18 -46q0 -16 -5 -27q10 1 22 4t23.5 6.5t21 6
t14.5 2.5t6 -3t1 -8zM19 305q0 -10 7 -14.5t15 -6.5q1 3 5.5 11t9.5 15.5t10 13.5t9 6q1 0 4.5 -1t6 -3t3.5 -5.5t-2 -8.5q-7 -7 -12.5 -15t-10.5 -16l14 -1h23.5t23.5 1q6 16 6 34q0 19 -12 27t-29 8q-9 0 -21.5 -2.5t-23.5 -8t-18.5 -14t-7.5 -20.5zM49 205q9 0 18 5.5
t17.5 13t15 16.5t11.5 16h1l-58 1q-4 -10 -8 -20.5t-4 -21.5q0 -3 1.5 -6.5t5.5 -3.5z" />
    <glyph glyph-name="p" unicode="p" horiz-adv-x="203" 
d="M76 438q0 -4 -6 -21t-15 -41t-20 -51t-20.5 -51t-17 -41t-8.5 -20q45 85 81 121.5t56 36.5q14 0 24 -9t12 -23q2 -18 -10.5 -39t-31.5 -39t-40.5 -30.5t-38.5 -12.5q-5 0 -7.5 4.5t-2.5 7.5q0 1 17.5 11t38.5 25t37.5 33.5t14.5 35.5q-1 13 -14 13q-14 0 -35.5 -22.5
t-45.5 -58t-49 -78t-46 -82.5t-36 -72.5t-20 -46.5q-2 -8 -10 -8.5t-12 7.5q-1 2 -1 4t2 8l181 444q6 9 14 4.5t9 -9.5z" />
    <glyph glyph-name="n" unicode="n" horiz-adv-x="310" 
d="M179 316q6 17 0 29t-28 1q-24 -11 -54 -36.5t-58.5 -51.5t-50.5 -46t-29 -20q-5 0 -8.5 4.5t-3.5 9.5q0 7 14.5 33.5t33.5 58.5t38 62t27 42q2 2 6 3.5t7.5 1t6 -3.5t2.5 -10q0 -2 -1 -4q-19 -37 -43 -71t-44 -72q15 13 37.5 35.5t47.5 43.5t50 36.5t46 15.5
q14 0 22.5 -9t8.5 -23q0 -15 -5 -29.5t-11.5 -29.5t-11.5 -30t-5 -29q0 -9 9 -9q13 0 34.5 13.5t42 29t35.5 29t16 13.5q8 0 10 -8t-3 -13q-11 -8 -29 -23t-37.5 -29.5t-38 -25.5t-29.5 -11q-12 0 -22.5 7.5t-10.5 21.5q0 24 11 47.5t18 46.5z" />
    <glyph glyph-name="m" unicode="m" horiz-adv-x="430" 
d="M317 248q-3 -14 -4 -23t2 -12t11 0t22 14q13 10 25.5 22.5l24 24t20 19.5t13.5 8t6 -4t1 -9t-17 -21.5t-39 -34.5t-42 -32t-27 -14q-14 0 -20.5 8t-6.5 21q0 26 9 54t12 55q0 5 -1.5 10t-6.5 5q-4 0 -16 -10.5t-28.5 -26.5t-35.5 -34.5t-36.5 -34.5t-32 -26.5
t-21.5 -10.5q-8 0 -13 6t-5 14q0 1 7.5 23t17 49.5t18 52.5t10.5 32q-13 -9 -32.5 -27.5t-42.5 -41.5t-47 -48t-44.5 -46t-36 -35t-21.5 -16q-4 0 -7.5 2.5t-3.5 7.5q0 7 11 29.5t28.5 52t38 62.5t39 60t33.5 45t20 18t7 -5t2 -9q0 -2 -1 -3q-31 -47 -62.5 -91t-57.5 -95
q11 10 36 36.5t52 54.5t51.5 49.5t35.5 21.5t18.5 -7.5t7.5 -18.5q0 -5 -7 -25t-15.5 -44t-17 -46t-11.5 -30q4 6 21 22.5t38 36.5t43.5 39t38.5 31q8 6 13 7t8 1q17 0 23.5 -12t6.5 -26q0 -18 -3.5 -37t-8.5 -38z" />
    <glyph glyph-name="a" unicode="a" horiz-adv-x="303" 
d="M-4 191q-14 0 -21.5 11.5t-7.5 24.5q0 24 13.5 49t34.5 45.5t46.5 33t49.5 12.5q15 0 29.5 -5.5t25.5 -16.5q5 6 16 17.5t19 11.5q4 0 7 -3.5t3 -6.5q0 -7 -8 -22t-18 -33.5t-19.5 -38.5t-11.5 -37q-2 -22 4 -23.5t24 4.5q20 7 40.5 22t37.5 30t29 26t15 11q5 0 8 -4.5
t3 -9.5q0 -12 -20 -29.5t-46 -34t-53 -28t-40 -11.5q-14 0 -22.5 9t-8.5 23q0 20 7.5 40.5t15.5 38.5q-9 -9 -28 -26.5t-41 -35.5t-44.5 -31t-38.5 -13zM112 344q-18 0 -39.5 -11t-39.5 -28.5t-30.5 -37.5t-12.5 -38q0 -5 1.5 -9.5t6.5 -4.5q13 0 34 14.5t43.5 33.5t42.5 38
t30 28q-15 15 -36 15z" />
    <glyph glyph-name="b" unicode="b" horiz-adv-x="262" 
d="M-16 230q-16 -21 -28.5 -43.5t-26.5 -44.5l-10 -5q-5 0 -8.5 3.5t-4.5 8.5q0 1 13 23.5t34 58.5t48 81.5t55.5 93.5t56.5 95t51 84.5t38.5 63t18.5 31.5q11 4 15 -2t5 -11q0 -1 -8.5 -15.5t-22.5 -38.5t-32 -54t-37 -62t-37.5 -63t-34 -56.5t-25.5 -42.5t-13 -21
q9 9 25 21t34 23.5t36 19.5t30 8q16 0 29 -9.5t14 -26.5q0 -9 -4 -19.5t-10 -20t-13.5 -18.5t-13.5 -15l25 -1q22 0 39 10t37 15q9 4 12 -6q3 -7 -9.5 -14.5t-29 -13.5t-33.5 -9.5t-23 -3.5h-22t-22 1q-9 -6 -22 -14t-27 -15t-28 -12t-25 -5q-12 0 -26 5t-20 16zM27 232
q17 0 36 9.5t33 17.5q-19 4 -37 9t-37 5q-6 -5 -12 -11.5t-11 -13.5q10 -16 28 -16zM158 363q-10 0 -26 -8t-32.5 -19t-31.5 -22.5t-23 -18.5q20 -7 39.5 -9.5t39.5 -7.5q6 4 15 13t17.5 19.5t14 21.5t5.5 19q-1 6 -7 9t-11 3z" />
    <glyph glyph-name="c" unicode="c" horiz-adv-x="236" 
d="M29 214q32 0 67.5 13.5t65.5 30t51 30.5t24 14q5 0 7.5 -3.5t2.5 -7.5q0 -14 -27.5 -31.5t-64.5 -32.5t-73 -25.5t-53 -10.5q-23 0 -39.5 11t-16.5 36q0 19 13.5 43t33.5 45t43 35t43 14q18 0 34.5 -11.5t16.5 -31.5q0 -10 -4 -16.5t-15 -6.5h-1q-6 4 -6 9q0 14 -2 23.5
t-22 9.5q-16 0 -35 -12t-35.5 -30t-28 -38t-11.5 -35q0 -12 10.5 -17t21.5 -5z" />
    <glyph glyph-name="d" unicode="d" horiz-adv-x="264" 
d="M-8 182q-10 0 -15.5 8.5t-5.5 17.5q0 22 10 52t27 57.5t39.5 47t47.5 19.5q19 0 30 -10t24 -21l192 335q3 5 7 5.5t7.5 -1.5t5.5 -5.5t2 -5.5t-2 -6q-23 -35 -51.5 -82t-56 -97.5t-51.5 -100.5t-39 -91q2 -8 0.5 -16.5t-13.5 -8.5q-6 -13 -15.5 -31.5t-19 -39t-18 -42
t-14.5 -40.5q-3 -9 -5.5 -19t-1.5 -15.5t7.5 -4t21.5 16.5q22 20 43.5 45t41.5 51t38.5 52t34.5 49q9 5 12.5 -1.5t3.5 -11.5q0 -7 -12.5 -26t-32 -44.5t-43 -53t-45.5 -51t-40 -38.5t-25 -15q-15 0 -21.5 9.5t-6.5 23.5q0 20 10 48.5t23.5 58t27.5 57t22 47.5l-27.5 -35
t-36 -40.5t-40.5 -33t-40 -13.5zM3 250q-3 -11 -4.5 -20t1 -13.5t9.5 -3.5t19 10q15 11 30.5 25.5t29.5 30t25 30.5t17 27q-5 11 -15 17.5t-22 6.5q-16 0 -29.5 -10.5t-25 -27t-20.5 -35.5t-15 -37z" />
    <glyph glyph-name="e" unicode="e" horiz-adv-x="203" 
d="M23 299q-8 -11 -14.5 -24.5t-6.5 -27.5q0 -17 16 -24.5t30 -7.5q24 0 50.5 13.5t49 30t38.5 30t19 13.5q11 0 11 -13t-22 -30t-51.5 -32t-58 -25.5t-41.5 -10.5q-24 0 -44.5 16t-20.5 42q0 17 11 38.5t27.5 40t36.5 31t37 12.5q16 0 28.5 -10.5t12.5 -27.5
q0 -25 -20.5 -38t-42.5 -13q-11 0 -24 4.5t-21 12.5zM91 348q-13 0 -29 -12t-24 -22h2q11 -7 27 -7q12 0 26 5.5t14 20.5q0 6 -5 10.5t-11 4.5z" />
    <glyph glyph-name="f" unicode="f" horiz-adv-x="194" 
d="M-4 258q33 0 56.5 3t44.5 8.5t42 13t50 16.5q1 0 0.5 0t5.5 1q3 1 4 -4t1 -7q-1 -8 -15 -15t-35 -13t-46.5 -11t-49 -8.5t-42.5 -5.5t-28 -2q-25 -44 -45 -80t-38 -71.5t-36.5 -72.5t-39.5 -82q-8 -8 -13.5 -3.5t-5.5 7.5q2 17 8.5 40.5t21.5 47.5q19 30 31.5 53t20 42.5
t11.5 38.5t7 42t-7 41q-2 6 -2 9q2 12 13 12q15 0 30.5 -0.5t30.5 0.5q7 13 22.5 39t36 57t44.5 63t47.5 58.5t44.5 43.5t36 17q5 0 12.5 -3t5.5 -10q-1 -9 -16 -32t-37.5 -52t-49 -61t-51 -58t-43.5 -43t-26 -17zM187 506q-48 -43 -85.5 -91.5t-74.5 -101.5q45 44 85.5 92
t74.5 101zM-73 174q6 15 13.5 29.5t15.5 29.5h-14.5t-14.5 1q5 -11 5 -23t-2 -25z" />
    <glyph glyph-name="g" unicode="g" horiz-adv-x="264" 
d="M112 130q-7 -13 -16.5 -34.5t-21 -46.5t-24.5 -51t-27.5 -46.5t-30.5 -33.5t-32 -13q-12 0 -34 11.5t-45.5 29t-44.5 37t-32 34.5q-6 10 -7.5 19t9.5 18q17 13 58.5 27.5t87.5 27.5t86.5 23t55.5 16q3 3 13 24.5t22 48t22.5 50.5t13.5 31l-31 -31t-40 -37t-43 -30.5
t-41 -12.5q-17 0 -25 9.5t-8 26.5q0 23 10.5 50.5t28 51t41 39.5t49.5 16q21 0 40.5 -9t30.5 -28q2 3 6.5 9t9 11.5t9.5 10t9 4.5q5 0 7.5 -4.5t2.5 -8.5q0 -1 -6.5 -15t-16 -35.5t-21 -47t-21.5 -48.5t-18 -40t-10 -22q3 1 15 7.5t25.5 13.5t24.5 12.5l11 5.5q12 0 12 -13
q0 -6 -14 -14.5t-32 -17.5t-35 -16t-23 -9zM6 265q-5 -14 -6 -25t3 -17.5t12.5 -7t22.5 8.5q15 10 33 24.5t35.5 29.5t31.5 28.5t22 22.5q-6 16 -20.5 24t-30.5 8t-31.5 -8.5t-29 -22t-24.5 -31t-18 -34.5zM-180 40q0 -8 17.5 -26.5t41 -37t46 -33t32.5 -14.5q17 0 36 24
t36 56t31 63.5t21 46.5q-46 -17 -94 -29l-96 -24q-4 -1 -15.5 -4t-24 -6.5t-22 -7.5t-9.5 -8z" />
    <glyph glyph-name="h" unicode="h" horiz-adv-x="304" 
d="M175 329q-15 0 -38.5 -17t-51 -43t-55.5 -55.5t-50.5 -55.5t-37.5 -43t-16 -17q-4 0 -9.5 2t-5.5 7q0 16 15 51.5t39.5 82.5t56.5 101.5t65.5 108.5t66.5 104.5t60 89.5t45.5 62t23.5 23q8 0 10.5 -6.5t-2.5 -11.5q-91 -128 -177.5 -262t-151.5 -277q12 15 40 45t60 60
t63.5 52.5t49.5 22.5t27 -6t13.5 -16t5.5 -21.5t3 -23.5t4.5 -17.5t17.5 -0.5q7 2 16 7.5t17.5 11.5t15.5 11t10 5q5 0 6 -3.5t1 -7.5q0 -6 -10.5 -14t-24 -15.5t-27 -12.5t-18.5 -5q-22 0 -26.5 13t-5.5 29t-4 29t-21 13z" />
    <glyph glyph-name="i" unicode="i" horiz-adv-x="159" 
d="M-4 183q-12 0 -21.5 7.5t-9.5 20.5q0 21 11 47.5t27 53t34.5 50.5t33.5 41q3 4 7.5 3t7.5 -4t4 -7.5t-2 -7.5q-12 -16 -29 -38t-32 -45.5t-26 -47t-11 -42.5q0 -2 1 -5t5 -3q16 0 42.5 15t52.5 33.5t46 33.5t23 15q4 0 5.5 -4.5t1.5 -8.5q0 -7 -11 -17t-27.5 -22t-37 -24
t-39.5 -22t-34 -16t-22 -6zM105 418q-8 0 -11 6q-2 6 2 10q3 4 5.5 7.5t6.5 10.5q1 6 8 6q5 0 8 -3.5t4 -8.5q0 1 -1 -3t-3.5 -9.5t-7 -10.5t-11.5 -5z" />
    <glyph glyph-name="j" unicode="j" horiz-adv-x="165" 
d="M-68 76q25 51 43.5 98t39.5 99q-19 -5 -23 8t7 23q10 9 21 23.5t20 28.5t16 24.5t10 10.5q6 0 12.5 -5t6.5 -10l-126 -293q43 21 77 47t59 54.5t41.5 57.5t25.5 54q2 4 4 4h4q5 0 5 -7q0 -16 -18 -48t-49 -68t-72 -69t-87 -49q-11 -24 -27 -57.5t-37.5 -63.5t-48 -51
t-57.5 -21q-29 0 -50 12.5t-35 32t-20.5 43t-6.5 45.5q0 7 4 9t9 3q67 9 128.5 21.5t123.5 43.5zM-220 -109q25 0 46.5 17.5t38.5 42t31 51.5t24 46q-54 -25 -112 -40.5t-117 -18.5q1 -16 8 -33t18.5 -31.5t27.5 -24t35 -9.5zM101 419q-9 0 -13 7q-1 3 -1 6t4 7q5 8 13 22
q2 8 9 8q6 0 9.5 -5t4.5 -10q0 1 -1 -4t-4 -12t-8.5 -13t-12.5 -6z" />
    <glyph glyph-name="k" unicode="k" horiz-adv-x="265" 
d="M-51 165q-3 -6 -6.5 -13.5t-14.5 -2.5q-8 2 -8 7q0 10 19.5 46.5t49 86.5t65 106.5t68 106.5t57.5 87t34 47q4 6 11 6q11 0 11 -11q0 -2 -2 -6q-12 -26 -33.5 -52t-37.5 -50q-34 -51 -67 -102.5t-65 -105.5q24 11 43 23.5t37 26.5t35.5 29t37.5 30q4 4 6 4q13 0 13 -13
q0 -8 -11 -19t-28 -24t-37 -26t-39.5 -24.5t-35 -20t-22.5 -11.5q7 -12 15 -24t18.5 -22t23 -16.5t27.5 -6.5q16 0 30.5 6t26.5 13.5t21 14t14 6.5t7 -5t2 -8q0 -9 -13.5 -18t-30.5 -16.5t-34.5 -12t-24.5 -4.5q-18 0 -33.5 7t-28 18.5t-22.5 26t-17 29.5q-33 -57 -61 -113z
" />
    <glyph glyph-name="l" unicode="l" horiz-adv-x="184" 
d="M-1 141q-20 0 -31 12.5t-11 31.5q0 20 19.5 66.5t49.5 104.5t65.5 119.5t67 113t54.5 84.5t29 33q5 0 9.5 -1.5t4.5 -7.5q0 -1 -20.5 -33t-51 -81t-66 -108.5t-66 -116.5t-51 -104.5t-20.5 -71.5q0 -8 5.5 -12t12.5 -4q17 0 43.5 16.5t53.5 39t50.5 45.5t35.5 36
q6 6 10.5 0t4.5 -12t-12 -20t-31 -30.5t-42.5 -34t-45.5 -32t-40 -24t-27 -9.5z" />
    <glyph glyph-name="exclam" unicode="!" horiz-adv-x="205" 
d="M243 698q8 10 14.5 5.5t6.5 -8.5t-7.5 -19t-17 -32.5t-19 -34t-12.5 -22.5q-23 -44 -43 -84t-38 -80t-34.5 -81.5t-33.5 -88.5q-4 -8 -14 -6t-7 15q4 22 17.5 58t33 78.5t42.5 88t44.5 87t39.5 74t28 50.5zM33 206q8 0 10.5 -7t1 -15t-6.5 -14.5t-11 -6.5q-7 2 -9 9
t0 14.5t6 13.5t9 6z" />
    <glyph glyph-name="quotedbl" unicode="&#x22;" horiz-adv-x="207" 
d="M58 471q0 1 3 8t7 16.5t8.5 19t6.5 15.5q1 2 5 2.5t9 -0.5t9 -3t4 -6q0 -9 -3.5 -20t-9.5 -21t-13 -16t-14 -6q-5 0 -8.5 3t-3.5 8zM119 471q0 1 3 8t7 16.5t8.5 19t6.5 15.5q1 2 5 2.5t9 -0.5t9 -3t4 -6q0 -9 -3.5 -20t-9.5 -21t-13 -16t-14 -6q-5 0 -8.5 3t-3.5 8z" />
    <glyph glyph-name="dollar" unicode="$" horiz-adv-x="260" 
d="M215 525q13 1 33.5 0.5t40 -6.5t33.5 -17.5t14 -32.5q0 -5 -3 -9t-7 -4q-12 0 -14 13q-2 10 -11 16t-21 9t-24 4t-19 1q-9 0 -17.5 -1.5t-16.5 -0.5q-18 -43 -37.5 -85t-37.5 -85q8 -15 16 -33.5t8 -35.5t-7.5 -28.5t-18.5 -19t-24.5 -11t-26.5 -3.5q-4 -7 -8.5 -21
t-11.5 -25q-3 -5 -13.5 -6.5t-10.5 11.5q5 11 9 21.5t9 21.5q-14 3 -26 6t-24 11q-8 7 -4 16t9 9q6 0 23 -8.5t31 -9.5q11 25 22 51t19 52q-8 20 -13 37t-5 39q0 24 9 43t24 34t33.5 25t37.5 16l33 68q8 9 15.5 2.5t7.5 -12.5q0 -1 -3.5 -8.5t-8 -16t-9 -16.5t-5.5 -11z
M84 223q13 2 28.5 10.5t15.5 26.5q0 10 -4 19.5t-9 17.5q-8 -19 -15.5 -37.5t-15.5 -36.5zM113 357q16 32 29 64.5t30 64.5q-24 -10 -46 -31t-22 -52q0 -12 3 -23.5t6 -22.5z" />
    <glyph glyph-name="percent" unicode="%" horiz-adv-x="393" 
d="M159 478q-2 -15 -10 -28.5t-19 -23t-24.5 -15.5t-26.5 -6q-18 0 -27.5 14t-7.5 33q1 9 9.5 27t19.5 37t23 33t20 14q6 0 11.5 -4.5t4.5 -11.5q-1 -3 -3 -7q12 -12 22 -26.5t8 -35.5zM69 453q-2 -8 3 -12t10 -6q7 0 15.5 3.5t16.5 9t14 13.5t7 17q2 14 -9 24.5t-20 15.5
q-14 -18 -21.5 -30t-15.5 -35zM347 596q3 3 7.5 2.5t7.5 -3.5t3.5 -7.5t-3.5 -8.5q-85 -100 -162.5 -208t-147.5 -220q-9 -6 -15 -0.5t-5 10.5q1 11 21.5 44t51.5 77.5t68 94.5t71.5 94.5t62.5 78.5t40 46zM282 297q12 4 29 4q19 0 31.5 -13.5t10.5 -36.5q-2 -16 -12 -31
t-24 -27t-30 -19.5t-29 -7.5q-18 0 -27 14t-7 34q1 8 5.5 22.5t11 28.5t15 24.5t17.5 10.5q3 0 5 -1zM261 196q8 0 19 5t21 12.5t17.5 17t8.5 19.5q2 23 -20 23q-9 0 -19 -4t-19 -3q-6 -12 -12 -25t-8 -27q-1 -7 2 -12.5t10 -5.5z" />
    <glyph glyph-name="ampersand" unicode="&#x26;" horiz-adv-x="362" 
d="M140 361q-1 45 12.5 93t40.5 88t66.5 66t90.5 26q19 0 35 -10t16 -31q0 -19 -13.5 -41.5t-35 -46t-48.5 -46.5t-53.5 -44t-49.5 -38t-37 -28q3 -33 6 -63t13 -62q32 23 58 51.5t47 60.5q8 8 15 2.5t7 -10.5q0 -8 -16 -27t-36.5 -39.5t-40.5 -38t-28 -23.5
q11 -39 22.5 -70t23.5 -59.5t26 -57t29 -64.5q2 -4 2 -7q0 -5 -3.5 -8t-8.5 -3q-7 0 -17.5 16.5t-22.5 42t-24.5 56.5t-22.5 59.5t-16.5 50.5t-7.5 31q-23 -19 -56.5 -30.5t-62.5 -11.5q-19 0 -33 14t-14 33q0 22 15.5 46t37 47t45 42.5t39.5 33.5zM164 210q-9 29 -15 59.5
t-8 61.5q-11 -12 -30 -28t-38 -34.5t-32.5 -38t-13.5 -36.5q0 -26 28 -26q29 0 57 14t52 28zM165 378q11 9 31 24.5t44 34t48 39.5t44 41.5t32.5 39.5t12.5 34q0 12 -7 16t-18 4q-44 0 -78.5 -22t-58.5 -56.5t-36.5 -75.5t-13.5 -79z" />
    <glyph glyph-name="quotesingle" unicode="'" horiz-adv-x="143" 
d="M58 471q0 1 3 8t7 16.5t8.5 19t6.5 15.5q1 2 5 2.5t9 -0.5t9 -3t4 -6q0 -9 -3.5 -20t-9.5 -21t-13 -16t-14 -6q-5 0 -8.5 3t-3.5 8z" />
    <glyph glyph-name="parenleft" unicode="(" horiz-adv-x="217" 
d="M371 793q6 -1 7.5 -5t0.5 -8t-3.5 -7.5t-4.5 -3.5q-51 -11 -85 -38t-65 -68q-80 -106 -125 -233t-45 -260q0 -53 17.5 -104t61.5 -84q2 -2 3 -5t1 -5q0 -11 -11 -11q-4 0 -6 1q-26 14 -43 41t-27.5 58.5t-14.5 64t-4 59.5q0 46 10.5 106.5t31 125.5t50.5 129t68 116
t84 87.5t99 43.5z" />
    <glyph glyph-name="parenright" unicode=")" horiz-adv-x="277" 
d="M162 771q9 0 17.5 -17t15.5 -43.5t13 -58.5t10 -61t6 -52t2 -32q0 -79 -17 -163t-50 -156q-32 -69 -83.5 -126.5t-123.5 -87.5q-3 -1 -9 -3.5t-13 -5t-13 -4.5t-8 -2q-6 0 -10.5 2t-4.5 10q0 6 8 9q46 15 84 38t71 58q38 40 65.5 91.5t45.5 108.5t26.5 116t8.5 113
q0 38 -4.5 68.5t-11.5 59t-16 57t-19 63.5q-1 3 -1 9q0 4 4 6.5t7 2.5z" />
    <glyph glyph-name="asterisk" unicode="*" horiz-adv-x="239" 
d="M255 578q12 0 12 -12q0 -5 -10 -9.5t-23.5 -8.5t-26 -6.5l-17.5 -3.5q1 -3 6.5 -11t11 -16.5t10 -16t4.5 -8.5q0 -12 -13 -12q-5 0 -10.5 6t-10.5 14t-9.5 16t-7.5 12l-10 -20t-11 -19l-10 -7q-5 0 -8.5 3.5t-3.5 8.5q0 2 2.5 7.5t6 11.5t6.5 11.5t5 8.5q-11 -2 -24 -5.5
t-24 -3.5q-5 0 -9 3.5t-6 8.5q0 4 8.5 8t19.5 7t21.5 4.5t15.5 2.5q-1 2 -6 8.5t-10 14t-9.5 14l-4.5 6.5q0 7 5 14l3 1q6 0 11.5 -4.5t10.5 -11.5t9 -14t7 -11q6 15 12 30.5t11 31.5l10 8q13 0 13 -12q0 -2 -3 -11.5t-7 -20.5t-8 -21.5t-5 -13.5z" />
    <glyph glyph-name="plus" unicode="+" horiz-adv-x="301" 
d="M151 321q6 0 21 1.5t31 2t28.5 -2t12.5 -9.5q0 -6 -13.5 -9.5t-31.5 -4.5t-35 -1.5t-23 -0.5l-21 -57q-3 -8 -7.5 -10.5t-8.5 -2t-6.5 3.5t-2.5 5t3 10.5t7 19t7.5 19.5t4.5 12q-6 0 -24 -1t-37 -0.5t-34 3t-15 9.5t16 10t36.5 3.5t40 0t26.5 -0.5q8 20 15.5 38.5
t17.5 37.5q5 7 13 5.5t8 -10.5q0 -1 -4 -11t-9.5 -22.5t-10 -23.5t-5.5 -14z" />
    <glyph glyph-name="comma" unicode="," horiz-adv-x="137" 
d="M29 214q13 0 17 -7t2.5 -17.5t-6 -21t-9.5 -16.5q-8 -15 -17 -15q-4 0 -7.5 2t-2.5 7q0 3 5.5 11.5t6.5 16.5q-8 -1 -11 5t-1 14t8 14.5t15 6.5z" />
    <glyph glyph-name="hyphen" unicode="-" horiz-adv-x="357" 
d="M287 351q11 -4 8 -14t-8 -10h-242q-6 1 -7.5 5t-0.5 8.5t3.5 7.5t4.5 3h242v0z" />
    <glyph glyph-name="period" unicode="." horiz-adv-x="132" 
d="M27 176q-10 1 -15 8t-5 15t5.5 14t17.5 6q13 0 18.5 -7t4 -15.5t-8.5 -15t-17 -5.5z" />
    <glyph glyph-name="zero" unicode="0" horiz-adv-x="250" 
d="M219 591q29 -5 40 -28.5t11 -49.5q0 -24 -9.5 -59t-26.5 -74.5t-40 -79t-49 -71t-55 -51.5t-57 -20q-20 0 -30.5 14.5t-10.5 32.5q0 36 16.5 82.5t41 93.5t52 89t48.5 70l-10 3q-1 2 -2 4.5t-1 4.5q0 5 6.5 10.5t14.5 10t16.5 8t12.5 4.5q4 5 10 13t12 8q11 0 11 -10z
M36 182q8 0 15 4t14 9q36 25 68.5 62t58 79.5t40.5 89t15 90.5q0 17 -8 34.5t-29 17.5l-9 -1q-23 -27 -55 -72.5t-61 -96.5t-49.5 -102t-20.5 -88q0 -11 4.5 -18.5t16.5 -7.5z" />
    <glyph glyph-name="one" unicode="1" horiz-adv-x="155" 
d="M294 641q0 -5 -10.5 -20t-24.5 -32.5t-27 -34t-17 -22.5q-66 -89 -122 -183.5t-95 -198.5l-11 -8q-2 0 -6.5 1.5t-4.5 4.5q0 21 15 57t39 79.5t53 90.5t58 90t53.5 77t38.5 53q-8 -5 -34 -21t-55 -34t-53 -32t-28 -14q-5 0 -7 4.5t-2 7.5q0 6 5 9q7 4 25.5 16t42.5 27
t50.5 31t49.5 30t39.5 22.5t20.5 8.5t5.5 -3t1.5 -6z" />
    <glyph glyph-name="two" unicode="2" horiz-adv-x="307" 
d="M247 200q6 4 10.5 2t6.5 -6.5t1 -9.5t-6 -7q-24 -17 -50 -33t-56 -16q-23 0 -36.5 6t-24 15t-20.5 19.5t-26 19.5q-7 -5 -19 -13t-25 -15.5t-26 -13t-21 -5.5q-3 0 -6.5 2.5t-3.5 6.5q0 13 7.5 25t18.5 21t25 14.5t26 5.5h10t10 -2q18 20 41 39t43 39q18 19 47 53
t56.5 72t47.5 76.5t20 66.5q0 14 -8.5 24.5t-23.5 10.5q-27 0 -60.5 -25t-63 -60.5t-49.5 -74t-20 -64.5q0 -12 5 -22t16 -15q8 -6 3 -13t-10 -7q-9 0 -16 6t-12 14t-7.5 17.5t-2.5 16.5q0 21 10 47.5t26.5 54.5t38.5 54.5t46 47.5t48.5 33.5t46.5 12.5q25 0 41 -14t16 -40
t-13.5 -58.5t-35.5 -67t-49.5 -69.5t-56 -66t-55 -56.5t-45.5 -41.5q12 -7 20 -16t16 -17.5t19 -14.5t29 -6q16 0 29 5t24 12t21.5 15.5t22.5 14.5zM10 193q-5 1 -14.5 -5t-12.5 -10q15 6 27 15z" />
    <glyph glyph-name="three" unicode="3" horiz-adv-x="356" 
d="M386 570q0 -30 -22 -63t-49 -63.5t-51.5 -56.5t-29.5 -43q0 -7 9 -12t20 -13t20 -22.5t9 -39.5q0 -32 -21 -58.5t-52 -45t-66.5 -29t-63.5 -10.5q-20 0 -40 5.5t-36 16t-25.5 27t-9.5 38.5q0 20 7.5 41t18.5 38q9 8 15 2.5t6 -10.5q0 -1 -4 -8t-8.5 -17t-8.5 -22.5
t-4 -23.5q0 -17 8 -29.5t20 -20.5t27.5 -12t30.5 -4q25 0 56.5 9t60 25t48 39t19.5 51q0 19 -9.5 30t-20.5 19t-20.5 16.5t-9.5 22.5q0 6 12 22t28 34t30.5 34.5t20.5 22.5q14 14 27.5 34t22.5 36q10 17 9 26.5t-9 12.5t-22 -0.5t-30 -12.5q-20 -11 -42.5 -26t-43.5 -34
t-37 -41t-22 -46q-4 -11 5 -14q8 -3 8 -11q0 -5 -4.5 -7t-9.5 -2q-11 0 -17.5 6.5t-6.5 16.5q0 17 12 38.5t31.5 44t44 43.5t49 37.5t46.5 26.5t38 10q13 0 24.5 -7t11.5 -21z" />
    <glyph glyph-name="four" unicode="4" horiz-adv-x="319" 
d="M400 669q3 5 7 6t7.5 -0.5t6 -4.5t2.5 -5q0 -3 -2 -7q-11 -14 -24 -33t-27 -41t-28 -45t-27 -45q-29 -48 -56.5 -96.5t-52.5 -99.5q4 0 14.5 0.5t21 0.5t18.5 -2t8 -8q-1 -7 -10.5 -10t-22 -4.5t-24.5 -1.5h-18q-17 -37 -36 -79t-35 -80q-3 -5 -13 -5t-10 11
q0 4 9.5 25.5t21 47t22.5 48.5t15 31q-34 0 -74.5 -4.5t-74.5 -4.5q-6 0 -12 3t-9.5 8t-2.5 12t9 15q8 7 20 16.5t24.5 18.5t23 16.5t15.5 10.5q36 27 74.5 59.5t76 68t73 71.5t66.5 70zM33 287q35 0 73.5 2.5t73.5 6.5q29 60 61.5 117.5t68.5 113.5q-68 -66 -140 -125.5
t-149 -113.5z" />
    <glyph glyph-name="five" unicode="5" horiz-adv-x="351" 
d="M394 618q4 0 8 -4t4 -8q0 -10 -12 -12q-34 -5 -52 -6.5t-33.5 -2t-34 -1t-52.5 -2.5q-19 -1 -35 -18t-30.5 -40.5t-26.5 -48t-23 -40.5q31 6 65 13.5t66 7.5t50.5 -17t18.5 -50q0 -44 -32 -87t-78 -77t-97 -55t-90 -21q-9 0 -20.5 2.5t-21 7.5t-16.5 13.5t-7 19.5
q0 17 24.5 45t56.5 54.5t63.5 45.5t45.5 19q13 0 13 -13q0 -3 -13 -11t-33 -20t-43 -26.5t-43 -30t-33 -31.5t-13 -30q0 -7 5 -11t12 -6.5t14.5 -3.5t12.5 -1q22 0 51 9.5t59 25.5t59 37.5t51.5 45.5t36.5 49.5t14 49.5q0 23 -12.5 34t-34.5 11q-18 0 -37 -4t-37.5 -8.5
t-36.5 -8.5t-36 -4q-7 0 -9 6t-2 11t7 20t16.5 31.5t19 31.5t13.5 21q7 10 10.5 17t6.5 12t7 11t13 15q11 10 40 16.5t63 10.5t67 5t51 1z" />
    <glyph glyph-name="six" unicode="6" horiz-adv-x="315" 
d="M291 600q16 0 31 -5.5t27 -15t19 -23.5t7 -31q0 -6 -2.5 -15t-7 -17.5t-10.5 -14.5t-13 -6q-5 0 -8 4.5t-3 9.5q0 4 3 7l7 7t7 10t3 16q0 26 -20.5 38t-43.5 12q-42 0 -84 -31t-77 -75.5t-60.5 -93t-35.5 -84.5l1 2q28 23 66 38t75 15q35 0 61 -15.5t26 -55.5
q0 -28 -16.5 -55t-41 -48t-54 -34t-56.5 -13q-22 0 -39.5 9t-30 23.5t-19 33.5t-6.5 40q0 32 12 71.5t33 80.5t50 80t61.5 69t68 48.5t70.5 18.5zM173 324q-19 0 -40 -6t-41.5 -16t-38.5 -23t-31 -26h-2l-1 -14q0 -17 3.5 -32.5t12 -28.5t21.5 -20.5t32 -7.5q22 0 48.5 11.5
t48.5 29.5t37 41t15 47q0 13 -6 22t-15 14t-20.5 7t-22.5 2z" />
    <glyph glyph-name="seven" unicode="7" horiz-adv-x="418" 
d="M471 610q5 0 9 -3.5t6 -8.5q0 -5 -6 -9q-72 -51 -134.5 -102t-120.5 -119q22 3 45 7t45 4q3 0 7.5 -3.5t4.5 -7.5q0 -6 -17 -10.5t-38.5 -7.5t-42.5 -5t-28 -3q-48 -63 -89.5 -126.5t-73.5 -136.5l-15 -3q-5 5 -5 8q0 11 9 31t23 44.5t31 51.5t33.5 51.5t30.5 44t22 28.5
q-20 -4 -44.5 -10.5t-44.5 -6.5q-5 0 -7 4t-2 8q0 6 16 11.5t36.5 10t40 7.5t26.5 4q52 61 110.5 115.5t124.5 101.5q-25 -5 -53 -7.5t-54 -2.5q-17 0 -34.5 3.5t-34 8t-32 8t-30.5 3.5q-12 0 -30.5 -21.5t-37.5 -49t-34.5 -54.5t-22.5 -39l-10 -6q-13 0 -13 13q0 5 8 19
t20.5 33t27.5 40t29 39t25.5 31t16.5 16q5 1 9 2t8 1q33 0 66.5 -11t69.5 -11q39 0 77.5 7.5t76.5 7.5z" />
    <glyph glyph-name="eight" unicode="8" horiz-adv-x="257" 
d="M20 401q0 36 23.5 73t58.5 67.5t75.5 50t75.5 19.5q25 0 44.5 -12.5t19.5 -40.5q0 -10 -7 -30t-17.5 -44.5t-24.5 -51t-27.5 -48t-26.5 -35.5t-22 -14q-3 0 -6 3t-3 6q0 2 17 26t38 57t38 68.5t17 59.5q0 19 -13 26t-30 7q-29 0 -65 -18t-67.5 -46t-53 -61.5t-21.5 -63.5
q0 -29 13 -53t30 -46l17 -6l-1 -12q11 -17 19.5 -36.5t8.5 -40.5q0 -14 -6 -29t-16 -27.5t-23.5 -20.5t-28.5 -8q-21 0 -35.5 12.5t-14.5 34.5q0 15 5.5 32t14.5 33t20 30t22 24q-20 25 -34 53.5t-14 61.5zM51 145q25 0 40 18t15 42q0 17 -7.5 32t-17.5 28
q-19 -15 -35.5 -43.5t-16.5 -53.5q0 -9 6.5 -16t15.5 -7z" />
    <glyph glyph-name="nine" unicode="9" horiz-adv-x="327" 
d="M64 343q0 21 10 48.5t27 57t39.5 58t46.5 51t48.5 36t46.5 13.5q32 0 45 -23t13 -50q0 -32 -7.5 -62.5t-19 -60t-25 -58.5t-25.5 -57l-5 -4q-13 -21 -36.5 -54t-52 -64t-59 -53.5t-58.5 -22.5q-21 0 -36.5 9.5t-25.5 24.5t-15 34t-5 37q0 14 1.5 29t3.5 29q7 7 14 7
q6 0 7.5 -4.5t1.5 -9.5q0 -15 -2 -37.5t1 -43.5t14.5 -36t38.5 -15q21 0 45.5 17t48.5 41t43.5 49.5t29.5 42.5q-33 -14 -66 -14q-39 0 -63 22.5t-24 62.5zM317 525q0 8 -1 18.5t-4.5 19.5t-10 15t-17.5 6q-18 0 -40 -12.5t-44 -33t-42.5 -46.5t-36.5 -52.5t-25.5 -51
t-9.5 -41.5q0 -35 19.5 -50t51.5 -15q23 0 44 7.5t40 19.5q12 19 25 47t24.5 58t19 59.5t7.5 51.5z" />
    <glyph glyph-name="semicolon" unicode=";" horiz-adv-x="148" 
d="M59 301q-10 1 -15 8t-5 15t5.5 14t17.5 6q13 0 18.5 -7t4 -15.5t-8.5 -15t-17 -5.5zM29 238q13 0 17 -7t2.5 -17.5t-6 -21t-9.5 -16.5q-8 -15 -17 -15q-4 0 -7.5 2t-2.5 7q0 3 5.5 11.5t6.5 16.5q-8 -1 -11 5t-1 14t8 14.5t15 6.5z" />
    <glyph glyph-name="equal" unicode="=" horiz-adv-x="311" 
d="M251 361q3 0 7 -4.5t4 -7.5q0 -5 -3 -8.5t-8 -3.5h-210q-4 0 -8 4t-4 8q0 12 12 12h210zM239 297q3 0 6.5 -4.5t3.5 -7.5q0 -11 -10 -12q-23 -3 -50.5 -5t-56 -2.5t-56.5 -0.5h-51q-3 0 -6.5 3.5t-3.5 6.5q0 13 10 13q25 2 53 3.5l56 3t55 2t50 0.5z" />
    <glyph glyph-name="O" unicode="O" horiz-adv-x="635" 
d="M619 500q0 -48 -19.5 -104.5t-53 -112.5t-78 -107.5t-95 -91t-104 -63.5t-103.5 -24q-32 0 -56 14.5t-40 37.5t-24.5 51t-8.5 56q0 38 10 74t26 71q-33 18 -49.5 39.5t-16.5 61.5q0 41 17 82.5t46 80.5t67.5 72.5t80.5 58.5t85.5 39.5t82.5 14.5q53 0 96 -20t73.5 -54.5
t47 -79.5t16.5 -96zM170 21q47 0 96.5 23t97 61t89.5 87.5t73.5 102t50 105t18.5 97.5q0 46 -14 88t-41 73.5t-65.5 50t-87.5 18.5q-36 0 -76 -13.5t-79.5 -37t-76 -55t-64 -67t-44 -73.5t-16.5 -75q0 -29 12 -50t39 -32q18 40 52.5 89.5t77 95.5t89 81.5t88.5 47.5q3 1 9 1
q4 0 7 -5t3 -8t-8.5 -8.5t-19 -11.5t-20.5 -11l-14 -7q-38 -23 -73.5 -53.5t-67 -66t-57.5 -74.5t-44 -79q14 -4 28.5 -5t28.5 -1q27 0 54 2.5t53 7.5q41 7 75.5 21.5t72.5 24.5q14 4 17 -9q0 -10 -17 -19t-43 -16.5t-58 -14t-61.5 -11t-53 -7t-33.5 -2.5q-18 0 -36.5 1.5
t-36.5 6.5q-14 -34 -24 -69.5t-10 -71.5q0 -25 7 -49t20.5 -42.5t34 -29.5t48.5 -11z" />
    <glyph glyph-name="N" unicode="N" horiz-adv-x="809" 
d="M848 637q0 -36 -15.5 -82t-38 -98t-49.5 -108.5t-49.5 -113t-38 -111t-15.5 -102.5q0 -26 5.5 -44.5t19.5 -39.5q1 -2 2 -2.5t1 -2.5q0 -15 -14 -15q-9 0 -16 14t-11.5 32t-7 35t-2.5 24q0 50 15.5 105.5t38.5 112t49.5 112.5t49.5 107.5t38.5 97t15.5 81.5q0 18 -13 20
t-30 -3.5t-32.5 -14t-21.5 -11.5q-36 -23 -72 -53t-70 -64.5t-66 -70.5t-59 -69q-9 -11 -32 -41.5t-53.5 -70.5t-64.5 -83.5t-64.5 -80t-54 -60t-32.5 -23.5q-11 0 -17 9t-6 20q0 31 18.5 80t47 107t61 121t61 121.5t47 108.5t18.5 82q0 23 -14 35.5t-35 12.5
q-26 0 -59 -13.5t-68.5 -35.5t-69.5 -51.5t-60.5 -61.5t-43 -64.5t-16.5 -60.5q0 -16 5 -22.5t11.5 -9t11.5 -4.5t5 -9q0 -11 -12 -11q-22 0 -33 19t-11 39q0 31 17.5 66.5t45.5 69.5t64 65t74 55t74 38t64 14q30 0 51.5 -17.5t21.5 -52.5q0 -30 -16.5 -76.5t-42 -101.5
t-56 -116t-58.5 -120t-50 -113.5t-30 -96.5q21 15 39.5 35t35.5 42t33.5 45t31.5 43q46 59 93.5 121.5t98.5 122t107.5 112.5t119.5 92q17 10 38.5 20.5t40.5 10.5q23 0 36 -10.5t13 -36.5z" />
    <glyph glyph-name="M" unicode="M" horiz-adv-x="1085" 
d="M46 401q-11 0 -19.5 9.5t-14 22t-8.5 26t-3 22.5q0 42 17.5 78.5t46.5 67.5t67 55t79 41t82.5 26t77.5 9q54 0 86.5 -33t32.5 -87q0 -32 -10 -70.5t-26 -80.5t-36.5 -85.5t-41 -85.5t-40 -80.5t-33.5 -69.5q35 58 73 122t80.5 126t89.5 119.5t101 104.5q20 17 44 37
t53 32q16 7 27 7q16 0 24.5 -13.5t8.5 -27.5q0 -28 -13.5 -66t-33.5 -81t-43.5 -87.5t-43.5 -85t-33.5 -74.5t-13.5 -55v-6l11 -13q14 0 40 21t59 52t70 67t72 67t66 51.5t53 20.5q12 0 19.5 -6t11.5 -15t5.5 -19.5t1.5 -20.5q0 -48 -16.5 -94.5t-36.5 -92.5t-36.5 -91.5
t-16.5 -92.5q0 -5 1.5 -13t2.5 -16t-1 -13.5t-9 -5.5q-6 0 -9 6t-5 14.5t-2.5 16.5t-0.5 12q0 47 16.5 94t36.5 94t36.5 94t16.5 95q0 8 -3 19.5t-14 11.5q-17 0 -45.5 -20.5t-62.5 -51.5t-71 -67.5t-71 -67.5t-62 -51.5t-45 -20.5t-26 11.5t-9 28.5q0 20 11 50t28 66.5
t37.5 77t39.5 80t35 77t23 67.5q6 24 4.5 36t-8 15t-17.5 -1.5t-23 -12.5q-72 -48 -138.5 -124.5t-126 -164.5t-113 -179.5t-100.5 -169.5l-10 -6q-8 0 -9.5 5t-1.5 11q0 21 17.5 62t43.5 92.5t57 110.5t57 117.5t43.5 112.5t17.5 95q0 48 -28.5 72.5t-73.5 24.5
q-31 0 -68.5 -8.5t-75.5 -24.5t-73.5 -39t-62.5 -51t-43.5 -60.5t-16.5 -68.5q0 -18 6 -35t20 -28q8 -9 2.5 -14.5t-7.5 -5.5z" />
    <glyph glyph-name="L" unicode="L" horiz-adv-x="741" 
d="M61 -18q-31 0 -47.5 19t-16.5 50q0 38 24 102.5t63 140t89.5 152.5t103.5 140t104 102.5t92 39.5q20 0 29 -11t9 -30q0 -17 -13 -44t-33.5 -58.5t-46 -63.5t-51 -59t-48.5 -46t-38 -23q-4 1 -7.5 4t-3.5 8q0 2 16 16.5t40 38t52.5 53t52.5 60.5t40 61t16 55q0 14 -13 14
q-37 0 -84.5 -38.5t-98 -99.5t-99 -136.5t-86.5 -148t-61.5 -134.5t-23.5 -97q0 -43 39 -43q38 0 86.5 12.5t102 30.5t110.5 40t110.5 40t101 30.5t84.5 12.5q7 0 10.5 -4t3 -8.5t-3.5 -8.5t-8 -5q-41 -6 -93 -20.5t-109 -32.5t-115 -38t-111 -36t-96.5 -26.5t-71.5 -10.5z
" />
    <glyph glyph-name="K" unicode="K" horiz-adv-x="649" 
d="M875 606q-58 0 -114.5 -17t-112.5 -44t-111 -61.5t-109.5 -68.5t-109 -65t-109.5 -52q33 -11 59 -31.5t49 -44.5t45 -49t47.5 -45t56 -33t70.5 -13q18 0 36 7t33 7q9 0 11 -5l-3 -15q-37 -17 -78 -17q-48 0 -82.5 14.5t-61 36.5t-48.5 48t-44.5 50.5t-49 43.5t-62.5 26
q-36 -54 -70.5 -108t-66.5 -111q5 -5 5 -9q0 -5 -4.5 -12.5t-11 -14.5t-13.5 -12t-12 -5q-4 0 -8 3.5t-4 8.5q0 7 10 26.5t25.5 45.5t34.5 55t36.5 55.5t31.5 47.5t20 31h-2q-30 -8 -61 -17t-63 -9q-8 0 -13 9q0 9 18 16t41.5 12.5t45.5 8.5t30 3q7 3 14 5t14 5
q11 17 34.5 48.5t51.5 69.5t57.5 80t53.5 79.5t39.5 68t15.5 45.5q0 9 -8 12.5t-16 3.5q-19 0 -47.5 -9t-62 -23.5t-67.5 -33.5t-64 -39t-52 -40t-31 -36l-10 -6q-3 0 -7 2.5t-4 6.5q0 17 21 38.5t53.5 43.5t72 43.5t77.5 38.5t69.5 27t47.5 10q19 0 35.5 -9.5t16.5 -31.5
q0 -16 -14.5 -45t-37 -65t-50 -75t-53.5 -75.5t-48 -66t-33 -46.5l1 1q39 18 89 47t105.5 62.5t114 68t115 62t108 45t93.5 17.5h10t11.5 -1t9.5 -4t4 -9q0 -4 -2.5 -7.5t-7.5 -3.5z" />
    <glyph glyph-name="J" unicode="J" horiz-adv-x="621" 
d="M481 293q20 -2 35 -2.5t31 -0.5q20 0 40 4.5t38 4.5q5 0 6 -4.5t1 -8.5q0 -7 -12 -11t-27.5 -5.5t-30 -2t-20.5 -0.5q-20 0 -40 0.5t-40 1.5q-30 -37 -74.5 -85t-96 -91t-106.5 -72.5t-105 -29.5q-16 0 -31 3.5t-26.5 11t-18.5 20.5t-7 31q0 24 12 43t28 36q39 41 88 71
t103 49t111 28t113 9q19 27 40 61t38.5 70.5t28.5 74t11 71.5q0 51 -28 73.5t-76 22.5q-26 0 -64.5 -7.5t-80 -21.5t-82.5 -33.5t-73.5 -44t-53 -53.5t-20.5 -61q0 -21 8.5 -31t19 -15t19 -7.5t8.5 -9.5q0 -5 -2.5 -8.5t-7.5 -3.5q-15 0 -27.5 6.5t-21.5 17.5t-14 25t-5 28
q0 34 21 65.5t54.5 59t76 49.5t85.5 37.5t82.5 24t68.5 8.5q61 0 99 -29.5t38 -94.5q0 -33 -11 -70t-27.5 -73t-36.5 -70t-38 -61zM431 269q-48 -2 -104.5 -12.5t-111 -30.5t-101.5 -50t-75 -71q-8 -11 -13 -23t-5 -26q0 -22 17 -32t37 -10q44 0 96 27.5t102 67.5t92.5 83.5
t67.5 76.5h-2z" />
    <glyph glyph-name="I" unicode="I" horiz-adv-x="547" 
d="M125 496q-18 0 -40.5 3.5t-42 12.5t-33 24t-13.5 38q0 30 24 57t62.5 49.5t85.5 40.5t93.5 31t86.5 19.5t64 6.5q31 0 61 -7t53.5 -23t38 -40.5t14.5 -60.5q0 -35 -18 -80t-47 -95.5t-65 -103.5t-72 -102.5t-68.5 -93.5t-53.5 -76q-18 -27 -40 -57t-34 -59l6 -4l4 -8
q1 -5 -8 -11.5t-13 -10.5l-13 -1q-10 7 -10 18q0 17 30 62.5t75.5 108t98.5 135t98.5 142.5t75.5 131.5t30 101.5q0 32 -12.5 53t-33 33.5t-47 17.5t-53.5 5q-20 0 -57 -6t-80 -18t-88 -28t-81.5 -36t-59.5 -43.5t-23 -48.5q0 -23 18 -32.5t39.5 -14t39.5 -7.5t18 -14
q0 -9 -10 -9z" />
    <glyph glyph-name="H" unicode="H" horiz-adv-x="888" 
d="M44 388q-9 0 -17 6.5t-13.5 16t-8.5 20t-3 18.5q0 32 18 64t48 61t67.5 53.5t76.5 43t76 29t66 10.5q18 0 33.5 -3t27 -10.5t18 -21t6.5 -33.5q0 -32 -16 -74.5t-39 -85.5t-48.5 -82.5t-43.5 -66.5q94 5 186.5 9.5t186.5 8.5q8 12 30 44.5t50 74t59 86.5t58.5 82.5
t48 61.5t27.5 24q7 -4 7 -11l-16 -22.5t-40.5 -57.5t-54 -77.5t-57.5 -82.5t-50 -72t-32 -47q8 0 32.5 1.5t51 2.5t47 -1.5t20.5 -9.5t-22.5 -10.5t-51.5 -5t-56.5 -2t-37.5 -0.5q-74 -112 -143.5 -227.5t-133.5 -233.5l-8 -5q-3 0 -8 2t-5 7q0 8 18 41.5t45 80t60 100.5
t63 101.5t52.5 83.5t30.5 48q-94 -5 -187 -9.5t-187 -9.5q-12 -18 -30.5 -45t-40.5 -57.5t-46 -63t-47.5 -61t-44.5 -50.5t-36 -33q-15 -1 -17.5 9.5t-2.5 21.5q0 31 9 62t20.5 62t20.5 62t9 62q0 15 -6 20t-6 13q0 5 3.5 7.5t8.5 4.5l193 10q18 27 44.5 67.5t51 84.5
t41.5 87t17 75q0 23 -15.5 32t-35.5 9q-25 0 -60 -9.5t-73 -26t-75 -38.5t-66.5 -48t-47.5 -54.5t-18 -57.5q0 -18 5.5 -26.5t11.5 -12.5t11.5 -6.5t5.5 -8.5q0 -8 -4.5 -9.5t-10.5 -1.5zM33 29q31 27 58.5 61.5t53.5 71.5t50.5 74t50.5 70q-40 -1 -79 -3t-79 -4
q7 -22 -0.5 -58t-19.5 -75t-23.5 -76t-11.5 -61z" />
    <glyph glyph-name="G" unicode="G" horiz-adv-x="839" 
d="M803 311q-32 0 -65 1.5t-65 -1.5q-67 -87 -127.5 -180t-113.5 -189l1 -12q-4 -8 -12.5 -18t-17.5 -10q-3 0 -6.5 4t-3.5 7q0 8 13.5 33.5t34.5 60t46 74t48.5 75t41.5 62.5t25 38q-36 -26 -78 -50t-88 -42.5t-92.5 -29.5t-91.5 -11q-35 0 -65 8.5t-52.5 25.5t-35.5 44
t-13 65q0 43 15.5 90t37.5 84q-20 9 -43.5 25.5t-43.5 37.5t-34 45t-14 47q0 7 2.5 11t10.5 4q4 0 7.5 -7t7 -16t6 -18t4.5 -13q16 -32 46.5 -56.5t63.5 -37.5q36 52 88 104t113.5 94t128.5 68.5t133 26.5q16 0 35 -3t35 -10.5t26.5 -20.5t10.5 -34q0 -39 -25 -74.5
t-65.5 -65t-91.5 -53.5t-102 -41t-97.5 -26t-78.5 -9q-52 0 -100 15q-23 -37 -38 -79.5t-15 -87.5q0 -33 11 -56.5t30.5 -37.5t46 -20.5t56.5 -6.5q52 0 103.5 14t100.5 37t94.5 52.5t85.5 60.5q-49 -2 -97.5 -6.5t-96.5 -12.5q-20 -3 -45 -9.5t-45 -6.5q-6 0 -10.5 3.5
t-4.5 10.5q0 5 14.5 9.5t33 8t36 5.5t23.5 3q135 21 273 21q21 0 42.5 -0.5t42.5 -1.5q5 -2 6.5 -5.5t1 -7t-3 -6.5t-4.5 -3zM616 732q-64 0 -127.5 -25.5t-121.5 -65.5t-107 -89.5t-84 -97.5q8 -3 19.5 -5.5t24 -3.5t24.5 -1.5t21 -0.5q27 0 70 8.5t91 23.5t97 37t88 49
t63.5 58t24.5 66q0 15 -8.5 24.5t-21.5 14.5t-27 6.5t-26 1.5z" />
    <glyph glyph-name="F" unicode="F" horiz-adv-x="706" 
d="M209 302q-23 13 -57 27.5t-65.5 32.5t-54 41t-22.5 55q0 39 35 74t89.5 64t121.5 53t132 41t120 27.5t86 13.5q12 20 26.5 43t28.5 43q11 5 16 -0.5t5 -9.5q0 -3 -6 -13.5t-14 -22.5t-15.5 -22.5t-10.5 -14.5q24 1 59 2t74 -1.5t78 -9.5t70 -21.5t50.5 -38.5t19.5 -59
q0 -4 -2 -13t-5 -18t-7.5 -16t-9.5 -7q-14 0 -14 14q0 5 7.5 13t7.5 26q0 39 -30.5 60.5t-72.5 31.5t-86 12t-71 2h-41.5t-41.5 -1q-63 -100 -127.5 -197.5t-125.5 -199.5q17 1 58 2t86 1t83.5 -1t50.5 -5q4 -1 8 -4.5t4 -8.5q0 -11 -12 -11q-41 0 -82 3t-83 3
q-32 0 -63.5 -0.5t-63.5 -1.5q-13 -23 -25.5 -45t-26.5 -44q-6 -59 -33.5 -112t-67.5 -96l-9 -3q-12 0 -12 14q0 5 6 20.5t16 36t21.5 43.5t22.5 44t20 37.5t13 22.5q-5 42 -33 72q-34 -4 -71 -11.5t-71 -7.5q-4 0 -9 1.5t-5 6.5q0 8 7 15q30 5 60.5 9t61.5 6zM286 239
q6 12 12.5 23.5t13.5 22.5q-12 0 -24.5 -0.5t-24.5 -1.5q14 -19 23 -44zM580 706q-28 -3 -79.5 -13t-112 -26.5t-124 -39t-115 -50t-84 -59.5t-32.5 -67q0 -14 12.5 -28t32.5 -27t44 -25t47.5 -23.5t43.5 -22t31 -20.5q21 2 42 3l42 2q60 101 122.5 200t129.5 196z" />
    <glyph glyph-name="E" unicode="E" horiz-adv-x="668" 
d="M618 281q0 -6 -6 -10q-28 -19 -69.5 -42.5t-90 -47t-101.5 -46.5t-103.5 -40.5t-96 -28t-79.5 -10.5q-12 0 -24 3t-22 10t-16.5 16.5t-6.5 23.5q0 18 14 37.5t36.5 39t50.5 37.5t55 34t51 28t39 19q-24 -2 -60.5 -2.5t-70.5 7t-58.5 26t-24.5 54.5q0 38 27.5 75.5
t71.5 72t99 64.5t110 52t104 34.5t82 12.5q12 0 27 -2t27.5 -7t21.5 -15t9 -26q0 -12 -12.5 -31t-32.5 -40t-44 -42.5t-48 -38.5t-44 -27.5t-31 -10.5q-5 0 -8.5 4t-3.5 9t7 9q11 6 29.5 17t40 25.5t44 31.5t40 34t29 33t11.5 29q0 8 -7 12.5t-16 7t-18.5 3t-14.5 0.5
q-31 0 -78 -11.5t-99.5 -32t-105.5 -48t-96 -59t-69.5 -66.5t-26.5 -69q0 -24 15.5 -37t37.5 -18.5t46 -6.5t41 -1q35 0 69.5 8.5t67.5 8.5q5 0 8.5 -3.5t5.5 -8.5q1 -7 -7 -11q-14 -7 -42.5 -20t-64 -30t-72.5 -37.5t-68 -41.5t-50.5 -41.5t-19.5 -38.5q0 -17 13.5 -24.5
t27.5 -7.5q43 0 99 16t115 39.5t116 51.5t103 51.5t74.5 39.5t31.5 16q5 0 8 -3.5t3 -8.5z" />
    <glyph glyph-name="D" unicode="D" horiz-adv-x="762" 
d="M593 255q-42 -41 -96.5 -85t-115 -80t-122.5 -59.5t-119 -23.5q-20 0 -45 3.5t-46.5 13t-35.5 27.5t-11 47q2 26 18.5 48t41.5 39.5t55.5 31t60.5 24t57.5 17.5t46.5 12q43 95 101 190t112 185q-30 -2 -63 -8t-63 -13q-42 -10 -85 -28t-81 -41q-10 -5 -22 -15t-22 -13
q-3 -1 -7 -1q-2 0 -5 1.5l-5 2.5q-2 4 -2 8q1 2 4 6.5t5 6.5q37 27 82.5 48.5t93.5 37.5t96 25t92 11q11 20 23.5 40t26.5 39l9 8q4 -1 8.5 -4.5t3.5 -8.5q0 -3 -5.5 -13t-12.5 -21.5t-13.5 -22.5t-9.5 -15q35 5 71.5 -2t66 -26.5t46.5 -50.5t13 -73q-3 -33 -15 -65.5
t-29 -63.5t-38.5 -60t-42.5 -53q36 -2 77 5.5t73 15.5q7 -2 5 -11.5t-6 -11.5q-12 -7 -37.5 -12t-52.5 -8t-50 -4t-31 0zM524 648q-57 -89 -109.5 -185t-102.5 -190q39 5 78 7t78 2l116 -1q19 22 41 50.5t41.5 59.5t33 63.5t16.5 62.5q3 37 -9.5 62t-34.5 40.5t-51 22.5
t-59 7h-18.5t-19.5 -1zM128 32q55 0 113.5 20.5t115 52.5t108.5 71.5t94 78.5l-114 1q-38 0 -74 -1.5t-73 -8.5q-4 -6 -9.5 -16.5t-12 -21.5t-13.5 -19t-13 -8h-3q-4 4 -4 12q0 3 3.5 9t7 13.5t7.5 14.5t6 10q-15 -3 -38.5 -9t-50 -15t-52.5 -21.5t-47.5 -28t-36 -33.5
t-15.5 -38q-2 -18 8.5 -30.5t26.5 -19.5t34 -10t32 -3z" />
    <glyph glyph-name="C" unicode="C" horiz-adv-x="654" 
d="M340 379q0 6 6 9.5t14.5 6t16.5 4t13 2.5q15 5 35.5 15t42.5 24.5t43 31.5t37.5 35.5t26.5 37.5t10 37q0 15 -6.5 25t-16.5 16t-23 8.5t-25 2.5q-47 0 -102 -19t-109 -51.5t-104.5 -76t-89.5 -92.5t-62 -100.5t-23 -100.5q0 -36 16 -58t41 -35t55 -17.5t59 -4.5
q53 0 103.5 11.5t98.5 31.5t93 47t87 58q9 4 13 -3.5t4 -9.5q0 -3 -6 -8.5t-13.5 -11t-14.5 -10t-10 -6.5q-81 -52 -167.5 -87t-184.5 -35q-34 0 -69 5.5t-63 20.5t-46 41.5t-18 68.5q0 51 23 105.5t62 106t90.5 97.5t107.5 80.5t113.5 54.5t109.5 20q18 0 36 -3.5t32.5 -12
t23.5 -22.5t9 -36q0 -21 -13.5 -45t-35.5 -48t-49.5 -46.5t-56 -39.5t-55 -27t-45.5 -10q-14 0 -14 13z" />
    <glyph glyph-name="B" unicode="B" horiz-adv-x="662" 
d="M98 28q-11 0 -28.5 0.5t-34 4.5t-28 12.5t-10.5 24.5t21 31t45.5 27t51 21t38.5 12q17 32 36 63.5t34 63.5q0 9 8 14q48 85 99 167t104 163l13 6q10 2 10 -11q-1 -11 -2 -19t-15 -10q-45 -70 -88.5 -139t-84.5 -141l1 2q23 4 64 20.5t88.5 41t96.5 54.5t89.5 62.5t67 64
t28.5 59.5q2 23 -14.5 36.5t-41 21t-50.5 9.5t-42 2q-42 0 -91 -6.5t-98 -19.5t-94.5 -33t-80.5 -47q-9 -7 -20.5 -19.5t-13.5 -23.5q-1 -12 3.5 -17t10.5 -7.5t11 -5t7 -9.5q-2 -11 -14 -11q-18 0 -30 13.5t-10 31.5q3 31 29 56.5t66 45.5t88.5 34.5t95 23.5t86.5 13.5
t63 4.5q24 0 53.5 -3.5t54.5 -14t41 -30t13 -50.5q-3 -27 -22 -55t-48.5 -54.5t-66 -51.5t-72.5 -46t-69 -38t-56 -28q18 0 40 -2.5t41 -10.5t31 -22.5t10 -39.5q-2 -10 -4.5 -20.5t-7.5 -19.5q38 9 70 23t66 35l25 16q9 3 10 -9q1 -10 -22 -24.5t-54.5 -29t-64 -25
t-50.5 -13.5q-30 -33 -77.5 -64t-101 -55.5t-107.5 -39.5t-96 -15zM184 169q72 17 142.5 28t142.5 25q8 9 13 20t6 23q2 20 -8 31t-26 16.5t-34 7t-33 1.5q-26 0 -43.5 -4.5t-32.5 -10.5l-30 -12t-34 -10zM138 133q-8 -2 -27 -9t-38.5 -16t-35 -19t-16.5 -19q0 -6 8 -9.5
t19 -5.5t21.5 -2.5t14.5 -0.5q36 0 86.5 12t102 31.5t97.5 45.5t73 53q-9 -2 -32.5 -6t-53 -9t-61.5 -11t-59.5 -11.5t-46.5 -9.5t-22 -6q-3 -6 -6.5 -14t-7.5 -15.5t-10 -12.5t-13 -5q-4 0 -4.5 3t-0.5 6q1 8 5.5 15t6.5 15z" />
    <glyph glyph-name="A" unicode="A" horiz-adv-x="833" 
d="M648 306q-45 3 -90 3.5t-90 0.5q-44 0 -87.5 -1t-88.5 -3q-19 -26 -38.5 -51t-37.5 -51t-32.5 -54t-24.5 -59q-11 -6 -16.5 -2t-5.5 8q0 19 14.5 47.5t34 58.5t40.5 57t33 42q-31 -2 -64.5 -6.5t-67 -8.5t-66.5 -7t-63 -3q-3 0 -5.5 7t5.5 14q71 11 141 18t142 11
q25 29 64.5 70t87.5 86.5t101 90t105.5 80.5t101 58t87.5 22q18 0 31 -9t13 -29q0 -14 -11 -43t-28.5 -64.5t-39 -75.5t-42 -76.5t-37.5 -66t-26 -44.5q6 0 21.5 -1t32 -2.5t29.5 -5.5t13 -10q0 -5 -3 -8.5t-8 -3.5q-24 0 -49 3t-49 4q-32 -55 -57.5 -105.5t-48 -100.5
t-43 -103t-41.5 -112q-1 -3 -3.5 -6t-6.5 -3q-2 0 -6 1.5t-4 5.5q0 22 10.5 56.5t26.5 74.5t36.5 83t41 83t38.5 74t30 56zM827 711q-34 0 -79 -21.5t-94.5 -55.5t-100 -76t-96 -84.5t-82.5 -80.5t-60 -63q88 3 174 2.5t174 -5.5q8 14 25 43t37.5 66t42.5 77.5t40 76.5
t29.5 64t11.5 41q0 16 -22 16z" />
    <glyph glyph-name="circumflex" unicode="&#x2c6;" horiz-adv-x="194" 
d="M135 602q-6 -8 -14 -5t-8 8q0 7 2.5 18.5t6 24t6.5 24t4 19.5q-15 -12 -39.5 -31.5t-44.5 -41.5q-2 -2 -5 -2q-5 0 -9.5 3.5t-4.5 8.5t15.5 20t36 31.5t39 29.5t24.5 13q5 0 11 -2t6 -9q0 -5 -3.5 -20.5t-8 -33t-8.5 -33.5t-6 -22z" />
    <glyph glyph-name="tilde" unicode="&#x2dc;" horiz-adv-x="215" 
d="M129 663q14 0 21.5 10t16.5 10q4 0 8.5 -3t4.5 -8q0 -6 -6 -11.5t-14.5 -10t-17 -7.5t-13.5 -3q-13 0 -20 5.5t-11.5 11.5t-8 11.5t-7.5 5.5q-13 0 -22.5 -11t-15.5 -21q-8 -9 -15 -3.5t-7 10.5q0 6 7 14.5t16.5 16t19.5 13t17 5.5q9 0 15.5 -5.5t11.5 -12t10 -12
t10 -5.5z" />
    <glyph glyph-name="trademark" unicode="&#x2122;" horiz-adv-x="233" 
d="M273 652q2 0 4.5 -3.5t1.5 -6.5q-3 -9 -10 -9q-33 -2 -69.5 -1.5t-78.5 -9.5q-13 -49 -30 -100q-2 -6 -10.5 -8t-5.5 8q8 25 15.5 49.5t14.5 49.5q-11 -1 -23 -3t-23 -3q-6 5 -2.5 12t6.5 8q20 4 48 7.5t57 5.5t57 3t48 1zM186 573q6 0 18 8.5t24.5 19t23.5 19.5t15 9
q5 0 5.5 -4t-0.5 -9q-5 -18 -17 -43.5t-20 -43.5q-11 -11 -14 -7t-2 9q4 14 13 32.5t14 32.5q-7 -5 -15 -12.5t-16.5 -14t-17 -11t-16.5 -4.5q-14 0 -21.5 12t-12.5 23q-6 -9 -12 -30t-12 -34q-3 -9 -6 -9q-8 0 -6 10q1 7 5 22t9 30t12 26t15 11q3 -4 7 -11t8.5 -14t9 -12
t9.5 -5z" />
    <glyph glyph-name="_0144" unicode="&#xe000;" 
 />
    <glyph glyph-name="colon" unicode=":" horiz-adv-x="148" 
d="M59 301q-10 1 -15 8t-5 15t5.5 14t17.5 6q13 0 18.5 -7t4 -15.5t-8.5 -15t-17 -5.5zM27 176q-10 1 -15 8t-5 15t5.5 14t17.5 6q13 0 18.5 -7t4 -15.5t-8.5 -15t-17 -5.5z" />
    <glyph glyph-name="quotesinglbase" unicode="&#x201a;" horiz-adv-x="137" 
d="M29 214q13 0 17 -7t2.5 -17.5t-6 -21t-9.5 -16.5q-8 -15 -17 -15q-4 0 -7.5 2t-2.5 7q0 3 5.5 11.5t6.5 16.5q-8 -1 -11 5t-1 14t8 14.5t15 6.5z" />
    <glyph glyph-name="quotedblbase" unicode="&#x201e;" horiz-adv-x="204" 
d="M29 214q13 0 17 -7t2.5 -17.5t-6 -21t-9.5 -16.5q-8 -15 -17 -15q-4 0 -7.5 2t-2.5 7q0 3 5.5 11.5t6.5 16.5q-8 -1 -11 5t-1 14t8 14.5t15 6.5zM88 214q13 0 17 -7t2.5 -17.5t-6 -21t-9.5 -16.5q-8 -15 -17 -15q-4 0 -7.5 2t-2.5 7q0 3 5.5 11.5t6.5 16.5q-8 -1 -11 5
t-1 14t8 14.5t15 6.5z" />
    <glyph glyph-name="ellipsis" unicode="&#x2026;" horiz-adv-x="396" 
d="M27 176q-10 1 -15 8t-5 15t5.5 14t17.5 6q13 0 18.5 -7t4 -15.5t-8.5 -15t-17 -5.5zM159 176q-10 1 -15 8t-5 15t5.5 14t17.5 6q13 0 18.5 -7t4 -15.5t-8.5 -15t-17 -5.5zM291 176q-10 1 -15 8t-5 15t5.5 14t17.5 6q13 0 18.5 -7t4 -15.5t-8.5 -15t-17 -5.5z" />
    <glyph glyph-name="perthousand" unicode="&#x2030;" horiz-adv-x="569" 
d="M159 478q-2 -15 -10 -28.5t-19 -23t-24.5 -15.5t-26.5 -6q-18 0 -27.5 14t-7.5 33q1 9 9.5 27t19.5 37t23 33t20 14q6 0 11.5 -4.5t4.5 -11.5q-1 -3 -3 -7q12 -12 22 -26.5t8 -35.5zM69 453q-2 -8 3 -12t10 -6q7 0 15.5 3.5t16.5 9t14 13.5t7 17q2 14 -9 24.5t-20 15.5
q-14 -18 -21.5 -30t-15.5 -35zM347 596q3 3 7.5 2.5t7.5 -3.5t3.5 -7.5t-3.5 -8.5q-85 -100 -162.5 -208t-147.5 -220q-9 -6 -15 -0.5t-5 10.5q1 11 21.5 44t51.5 77.5t68 94.5t71.5 94.5t62.5 78.5t40 46zM282 297q12 4 29 4q19 0 31.5 -13.5t10.5 -36.5q-2 -16 -12 -31
t-24 -27t-30 -19.5t-29 -7.5q-18 0 -27 14t-7 34q1 8 5.5 22.5t11 28.5t15 24.5t17.5 10.5q3 0 5 -1zM261 196q8 0 19 5t21 12.5t17.5 17t8.5 19.5q2 23 -20 23q-9 0 -19 -4t-19 -3q-6 -12 -12 -25t-8 -27q-1 -7 2 -12.5t10 -5.5zM430 297q12 4 29 4q19 0 31.5 -13.5
t10.5 -36.5q-2 -16 -12 -31t-24 -27t-30 -19.5t-29 -7.5q-18 0 -27 14t-7 34q1 8 5.5 22.5t11 28.5t15 24.5t17.5 10.5q3 0 5 -1zM409 196q8 0 19 5t21 12.5t17.5 17t8.5 19.5q2 23 -20 23q-9 0 -19 -4t-19 -3q-6 -12 -12 -25t-8 -27q-1 -7 2 -12.5t10 -5.5z" />
    <glyph glyph-name="endash" unicode="&#x2013;" horiz-adv-x="357" 
d="M287 351q11 -4 8 -14t-8 -10h-242q-6 1 -7.5 5t-0.5 8.5t3.5 7.5t4.5 3h242v0z" />
    <glyph glyph-name="emdash" unicode="&#x2014;" horiz-adv-x="545" 
d="M444 351q11 -4 8 -14t-8 -10h-399q-6 1 -7.5 5t-0.5 8.5t3.5 7.5t4.5 3h399v0z" />
    <glyph glyph-name="bullet" unicode="&#x2022;" horiz-adv-x="184" 
d="M75 280q-18 3 -27.5 15.5t-9.5 27t10.5 25.5t31.5 11q25 0 34 -13t6.5 -28.5t-15 -27.5t-30.5 -10z" />
    <glyph glyph-name="guilsinglleft" unicode="&#x2039;" horiz-adv-x="248" 
d="M32 263q0 6 10 16t25.5 21.5t34 23.5t34.5 22t28 16t15 6q5 0 7.5 -4.5t2.5 -9.5q0 -6 -21 -19t-45.5 -27.5t-45.5 -27t-21 -18.5q0 -2 1 -3q7 -4 24 -11.5t34 -15.5t30 -15t13 -10q0 -5 -3.5 -9t-8.5 -4q-8 0 -26.5 7.5t-38 18t-34.5 22.5t-15 21z" />
    <glyph glyph-name="florin" unicode="&#x192;" horiz-adv-x="193" 
d="M-92 83l23 12q2 1 5 -0.5t4 -5t-0.5 -8t-8.5 -8.5q-8 -5 -16.5 -8t-16.5 -6q-11 -24 -27 -57.5t-37.5 -63.5t-48 -51t-57.5 -21q-29 0 -50 12.5t-35 32t-20.5 43t-6.5 45.5q0 7 4 9t9 3q67 9 128.5 21.5t123.5 43.5q8 14 15 35.5t10 44t2 44.5t-10 37q-2 6 -2 9
q2 12 13 12q15 0 30.5 -0.5t30.5 0.5q7 13 22.5 39t36 57t44.5 63t47.5 58.5t44.5 43.5t36 17q5 0 12.5 -3t5.5 -10q-1 -9 -16 -32t-37.5 -52t-49 -61t-51 -58t-43.5 -43t-26 -17l-1 -2q33 0 56.5 3t44.5 8.5t42 13t50 16.5q1 0 0.5 0t5.5 1q3 1 4 -4t1 -7q-1 -8 -15 -15
t-35 -13t-46.5 -11t-49 -8.5t-42.5 -5.5t-28 -2zM-271 -109q25 0 46.5 17.5t38.5 42t31 51.5t24 46q-54 -25 -112 -40.5t-117 -18.5q1 -16 8 -33t18.5 -31.5t27.5 -24t35 -9.5zM186 506q-48 -43 -85.5 -91.5t-74.5 -101.5q45 44 85.5 92t74.5 101zM-74 174q6 15 13.5 29.5
t15.5 29.5h-14.5t-14.5 1q5 -11 4.5 -24.5t-4.5 -35.5z" />
    <glyph glyph-name="fraction" unicode="&#x2044;" horiz-adv-x="230" 
d="M284 678q3 5 12 6t9 -10l-11.5 -23t-31 -61t-44.5 -86.5t-52 -101.5t-54 -105.5t-50 -97.5t-40 -78.5t-24 -48.5q-8 -5 -13 -1t-5 8q0 8 19.5 49.5t49.5 101t66 129t70 133.5t61 114.5t38 71.5z" />
    <glyph glyph-name="guilsinglright" unicode="&#x203a;" horiz-adv-x="269" 
d="M190 264q-2 -9 -26.5 -21.5t-54 -24t-55.5 -19t-30 -6.5q-5 1 -6.5 6t-0.5 10q1 4 12.5 9t27.5 10.5t35 11t35.5 11t27.5 10.5t12 9q0 2 -1 3q-6 6 -21 17l-30 22t-26 20.5t-10 12.5q1 5 5.5 8.5t9.5 1.5q7 -2 24 -13t33.5 -25t28.5 -29t10 -24z" />
    <glyph glyph-name="dagger" unicode="&#x2020;" horiz-adv-x="328" 
d="M268 351q11 -4 8 -14t-8 -10h-106l-78 -177q-15 -32 -30 -68.5t-32 -66.5q-2 -2 -5.5 -4.5t-6.5 -1.5q-8 1 -9.5 5.5t-0.5 10.5q0 2 12 29t31 69t43.5 95t50.5 109h-111q-6 1 -7.5 5t-0.5 8.5t3.5 7.5t4.5 3h122l123 267q12 9 16.5 2.5t4.5 -11.5q0 -2 -8.5 -20.5
t-19 -41t-20 -42.5t-12.5 -25q-15 -32 -30 -64.5t-29 -64.5h95v0z" />
    <glyph glyph-name="daggerdbl" unicode="&#x2021;" horiz-adv-x="326" 
d="M271 618q12 9 16.5 2.5t4.5 -11.5q0 -2 -8.5 -20.5t-19 -41t-20 -42.5t-12.5 -25q-14 -29 -27.5 -59t-27.5 -60h81q3 0 7 -4.5t4 -7.5q0 -5 -3 -8.5t-8 -3.5h-92l-19 -42q27 1 52 1.5t47 0.5q3 0 6.5 -4.5t3.5 -7.5q0 -11 -10 -12q-24 -4 -52.5 -5.5t-58.5 -2.5l-51 -115
q-15 -32 -30 -68.5t-32 -66.5q-2 -2 -5.5 -4.5t-6.5 -1.5q-8 1 -9.5 5.5t-0.5 10.5q0 2 9 22t24 53t34.5 75.5t40.5 89.5q-20 -1 -39.5 -0.5t-36.5 0.5q-3 0 -6.5 3.5t-3.5 6.5q0 13 10 13q20 2 43 3l46 2l10 22l10 22h-93q-4 0 -8 4t-4 8q0 12 12 12h104q21 45 40.5 87
t35.5 76.5t27.5 59t15.5 34.5z" />
    <glyph glyph-name="at" unicode="@" horiz-adv-x="588" 
d="M-5 263q0 65 30 124.5t78.5 105t110.5 72.5t125 27q40 0 74.5 -11t60.5 -33t41 -54t15 -74q0 -32 -14 -71t-37.5 -73t-55 -57t-67.5 -23q-24 0 -42 12.5t-23 36.5q-10 -7 -23.5 -19t-28.5 -23.5t-29.5 -20t-26.5 -8.5q-26 0 -26 26q0 22 17 55t41.5 63.5t53 52t51.5 21.5
q15 0 25.5 -7.5t17 -18.5t9 -25t2.5 -26q0 -6 -4 -10.5t-8.5 -5.5t-8 1.5t-3.5 9.5q0 9 -1 19t-4.5 19t-10.5 15t-18 6q-20 0 -42.5 -20.5t-42 -48.5t-33.5 -57t-18 -46q10 -2 28.5 12.5t38 31.5t36 32t21.5 15q3 0 7.5 -2.5t4.5 -6.5v-23t4 -19t12.5 -13t26.5 -5
q29 0 55.5 22t47 53.5t32.5 66t12 60.5q0 37 -13.5 65t-37 46.5t-54.5 28t-65 9.5q-56 0 -112.5 -25.5t-102 -68t-74 -96.5t-28.5 -111q0 -48 19.5 -84t52 -60t73.5 -36t84 -12q36 0 78.5 11t80 23.5t64.5 23.5t31 11q5 0 9 -1.5t6 -7.5q-1 -9 -18.5 -18.5t-43.5 -19
t-57.5 -18t-60.5 -15t-52.5 -10t-33.5 -3.5q-46 0 -92 13.5t-82.5 40t-59 66t-22.5 90.5z" />
    <glyph glyph-name="asciicircum" unicode="^" horiz-adv-x="205" 
d="M65 527q0 6 15 25t34 40t37.5 37.5t24.5 16.5q10 0 12.5 -8t2.5 -16q0 -27 -6.5 -56.5t-10.5 -57.5q0 -5 -7 -8.5t-12 -0.5t-5 8q0 26 7 53.5t10 53.5q-6 -6 -17.5 -19.5t-25 -29t-25.5 -29t-19 -18.5q-5 -5 -11 1q-4 4 -4 8z" />
    <glyph glyph-name="quotedblright" unicode="&#x201d;" horiz-adv-x="207" 
d="M58 471q0 1 3 8t7 16.5t8.5 19t6.5 15.5q1 2 5 2.5t9 -0.5t9 -3t4 -6q0 -9 -3.5 -20t-9.5 -21t-13 -16t-14 -6q-5 0 -8.5 3t-3.5 8zM119 471q0 1 3 8t7 16.5t8.5 19t6.5 15.5q1 2 5 2.5t9 -0.5t9 -3t4 -6q0 -9 -3.5 -20t-9.5 -21t-13 -16t-14 -6q-5 0 -8.5 3t-3.5 8z" />
    <glyph glyph-name="quotedblleft" unicode="&#x201c;" horiz-adv-x="207" 
d="M171 523q0 -1 -3 -8t-7 -16.5t-8.5 -19t-6.5 -15.5q-1 -2 -5 -2.5t-9 0.5t-9 3t-4 6q0 9 3.5 20t9.5 21t13 16t14 6q5 0 8.5 -3t3.5 -8zM110 523q0 -1 -3 -8t-7 -16.5t-8.5 -19t-6.5 -15.5q-1 -2 -5 -2.5t-9 0.5t-9 3t-4 6q0 9 3.5 20t9.5 21t13 16t14 6q5 0 8.5 -3
t3.5 -8z" />
    <glyph glyph-name="quoteright" unicode="&#x2019;" horiz-adv-x="143" 
d="M58 471q0 1 3 8t7 16.5t8.5 19t6.5 15.5q1 2 5 2.5t9 -0.5t9 -3t4 -6q0 -9 -3.5 -20t-9.5 -21t-13 -16t-14 -6q-5 0 -8.5 3t-3.5 8z" />
    <glyph glyph-name="quoteleft" unicode="&#x2018;" horiz-adv-x="143" 
d="M110 523q0 -1 -3 -8t-7 -16.5t-8.5 -19t-6.5 -15.5q-1 -2 -5 -2.5t-9 0.5t-9 3t-4 6q0 9 3.5 20t9.5 21t13 16t14 6q5 0 8.5 -3t3.5 -8z" />
    </font>
</defs>
</svg>
